<svg xmlns="http://www.w3.org/2000/svg" xmlns:xlink="http://www.w3.org/1999/xlink" version="1.1" width="10000pt" height="6000pt" viewBox="0 0 10000 6000">
<defs>
<clipPath id="clip_1">
<path transform="matrix(2,0,0,-2,0,6000)" d="M0 3000H5000V0H0Z"/>
</clipPath>
<clipPath id="clip_2">
<path transform="matrix(2,0,0,-2,0,6000)" d="M2236.593 2155.751C2085.445 2004.603 2085.445 1759.542 2236.593 1608.395L2510.271 1334.716 2783.949 1608.395C2859.524 1683.968 2897.31 1783.02 2897.31 1882.073H2752.829C2752.829 1817.399 2727.522 1756.295 2681.784 1710.558 2587.028 1615.801 2433.514 1615.801 2338.758 1710.558 2244 1805.315 2244 1958.829 2338.758 2053.586 2384.495 2099.324 2445.597 2124.629 2510.271 2124.629V2269.11C2411.219 2269.11 2312.167 2231.323 2236.593 2155.751"/>
</clipPath>
<clipPath id="clip_3">
<path transform="matrix(2,0,0,-2,0,6000)" d="M2405.488 2033.791C2405.304 2033.653 2405.131 2033.584 2405.118 2033.365 2405.107 2033.145 2404.991 2032.823 2404.854 2032.638 2404.715 2032.454 2404.542 2032.268 2404.38 2032.211 2404.219 2032.152 2403.976 2032.141 2403.792 2032.072 2403.607 2032.003 2403.25 2031.726 2403.054 2031.657 2402.857 2031.588 2402.903 2031.507 2402.639 2031.368 2402.513 2031.303 2402.363 2031.319 2402.226 2031.337 2402.07 2031.354 2401.932 2031.373 2401.866 2031.277 2401.739 2031.092 2401.646 2030.861 2401.6 2030.699 2401.553 2030.537 2401.542 2030.411 2401.369 2030.319 2401.196 2030.226 2401.369 2030.146 2400.931 2030.076 2400.493 2030.007 2400.146 2029.995 2400.1 2030.122 2400.054 2030.249 2399.916 2030.573 2400.1 2030.711 2400.285 2030.849 2400.273 2030.906 2400.458 2030.942 2400.642 2030.977 2400.711 2031.057 2400.469 2031.219 2400.227 2031.38 2399.927 2031.31 2400.065 2031.553 2400.204 2031.795 2400.18 2031.876 2400.389 2032.003 2400.596 2032.13 2400.711 2032.476 2400.689 2032.603 2400.665 2032.73 2400.654 2032.88 2400.32 2032.811 2399.985 2032.741 2399.707 2032.672 2399.545 2032.545 2399.385 2032.418 2399.085 2032.176 2398.772 2031.945 2398.461 2031.714 2398.197 2031.714 2398 2031.577 2397.804 2031.437 2397.111 2031.137 2397.1 2031.103 2397.089 2031.068 2397.25 2030.977 2397.031 2030.861 2396.811 2030.746 2396.811 2030.677 2396.604 2030.815 2396.396 2030.953 2396.362 2031.23 2396.12 2031.184 2395.878 2031.137 2395.507 2030.504 2395.507 2030.504 2395.576 2030.18 2395.6 2030.249 2395.669 2030.042 2395.738 2029.833 2395.612 2029.857 2395.576 2029.58 2395.542 2029.303 2395.531 2029.349 2395.692 2029.153 2395.854 2028.958 2396.269 2028.807 2395.9 2028.68 2395.531 2028.554 2395.369 2028.611 2395.127 2028.692 2394.885 2028.772 2394.701 2028.761 2394.654 2028.761 2394.608 2028.761 2394.423 2029.2 2394.239 2029.014 2394.054 2028.83 2394.239 2028.703 2394.088 2028.542 2394.003 2028.449 2393.872 2028.462 2393.741 2028.476 2393.643 2028.486 2393.545 2028.495 2393.466 2028.461 2393.281 2028.38 2393.131 2028.334 2393.131 2028.172 2393.131 2028.011 2393.142 2027.93 2392.993 2027.745 2392.842 2027.561 2392.542 2027.63 2392.485 2027.757 2392.427 2027.884 2392.427 2028.138 2392.266 2028.081 2392.104 2028.023 2392.185 2028.057 2392.023 2027.826 2391.862 2027.595 2391.585 2027.446 2391.505 2027.261 2391.423 2027.077 2391.527 2027.042 2391.169 2026.892 2390.812 2026.742 2390.443 2026.868 2390.246 2026.719 2390.05 2026.568 2389.75 2026.557 2389.601 2026.477 2389.45 2026.395 2389.312 2026.395 2389.173 2026.395 2389.035 2026.395 2388.712 2026.546 2388.631 2026.453 2388.551 2026.361 2388.193 2026.35 2388.528 2026.142 2388.862 2025.935 2388.966 2025.969 2389.104 2025.715 2389.243 2025.462 2389.357 2025.38 2389.289 2025.265 2389.219 2025.149 2389.15 2025.127 2388.793 2024.745 2388.435 2024.365 2388.389 2024.376 2388.135 2024.076 2387.882 2023.776 2387.627 2023.741 2387.674 2023.512 2387.72 2023.281 2387.824 2023.281 2388.066 2023.223 2388.308 2023.165 2388.193 2023.13 2388.677 2023.096 2389.162 2023.061 2389.335 2023.119 2389.508 2023.199 2389.681 2023.281 2390.166 2023.419 2390.246 2023.396 2390.327 2023.372 2390.547 2023.315 2390.674 2023.257 2390.801 2023.199 2390.892 2023.073 2391.181 2023.199 2391.469 2023.327 2391.551 2023.581 2391.735 2023.441 2391.92 2023.303 2392.335 2023.212 2391.909 2023.015 2391.481 2022.819 2391.089 2022.519 2390.892 2022.508 2390.798 2022.502 2390.739 2022.525 2390.659 2022.548 2390.572 2022.574 2390.462 2022.599 2390.259 2022.588 2390.144 2022.581 2390.052 2022.588 2389.972 2022.594 2389.78 2022.612 2389.67 2022.63 2389.531 2022.45 2389.335 2022.195 2389.162 2022.126 2389.024 2022.046 2388.886 2021.964 2388.447 2021.988 2388.7 2021.862 2388.955 2021.735 2389.139 2021.815 2389.37 2021.677 2389.601 2021.538 2389.497 2021.607 2389.728 2021.307 2389.958 2021.007 2389.923 2020.869 2390.177 2021.031 2390.432 2021.192 2390.547 2021.584 2390.892 2021.377 2391.239 2021.169 2391.285 2020.765 2391.147 2020.604 2391.008 2020.442 2390.731 2020.615 2390.65 2020.269 2390.57 2019.923 2390.592 2019.796 2390.777 2019.715 2390.832 2019.689 2390.898 2019.692 2390.958 2019.694 2391.092 2019.698 2391.179 2019.703 2390.961 2019.381 2390.65 2018.919 2390.534 2019.115 2390.639 2018.699 2390.743 2018.284 2390.489 2018.366 2390.385 2018.273 2390.281 2018.181 2389.888 2018.261 2389.797 2018.412 2389.704 2018.561 2389.646 2018.723 2389.519 2019.115 2389.393 2019.507 2389.37 2019.75 2389.07 2019.945 2388.77 2020.142 2388.342 2020.58 2388.054 2020.592 2387.766 2020.604 2387.143 2020.754 2387.085 2020.696 2387.027 2020.638 2386.762 2020.604 2386.901 2020.396 2387.039 2020.189 2387.143 2020.085 2387.178 2019.934 2387.212 2019.785 2387.212 2019.738 2387.12 2019.543 2387.027 2019.346 2386.947 2019.243 2386.832 2018.999 2386.716 2018.757 2386.508 2018.515 2386.312 2018.584 2386.116 2018.654 2385.528 2018.77 2385.85 2019.07 2386.174 2019.37 2386.323 2019.807 2386.289 2019.969 2386.254 2020.131 2386.232 2020.385 2386.035 2020.442 2385.839 2020.5 2385.597 2020.569 2385.412 2020.465 2385.228 2020.361 2384.928 2020.303 2384.777 2020.096 2384.628 2019.888 2384.57 2019.807 2384.328 2019.612 2384.086 2019.415 2383.889 2019.208 2383.589 2019.046 2383.289 2018.884 2382.551 2018.688 2382.297 2018.4 2382.043 2018.111 2381.743 2018.008 2381.432 2017.811 2381.119 2017.615 2380.797 2017.604 2380.693 2017.604 2380.589 2017.604 2380.013 2018.123 2379.955 2018.042 2379.897 2017.962 2379.804 2017.569 2379.678 2017.489 2379.605 2017.441 2379.525 2017.471 2379.422 2017.5 2379.344 2017.522 2379.255 2017.544 2379.147 2017.535 2378.893 2017.511 2378.812 2017.489 2378.698 2017.373 2378.582 2017.258 2378.432 2017.235 2378.225 2017.211 2378.133 2017.201 2378.018 2017.227 2377.91 2017.255 2377.769 2017.29 2377.645 2017.325 2377.612 2017.28 2377.554 2017.2 2377.405 2017.084 2377.208 2016.98 2377.012 2016.877 2377.359 2016.796 2376.759 2016.922 2376.159 2017.049 2376.332 2016.922 2375.951 2017.142 2375.571 2017.362 2375.34 2017.246 2375.155 2017.593 2374.971 2017.939 2374.727 2018.123 2374.589 2018.412 2374.451 2018.699 2374.243 2018.954 2373.99 2018.954 2373.736 2018.954 2373.263 2018.815 2373.194 2018.619 2373.124 2018.423 2372.952 2018.297 2372.813 2018.226 2372.755 2018.198 2372.703 2018.199 2372.649 2018.2 2372.575 2018.201 2372.498 2018.204 2372.397 2018.123 2372.317 2018.058 2372.209 2018.073 2372.112 2018.088 2372.002 2018.106 2371.908 2018.123 2371.89 2018.019 2371.855 2017.823 2371.878 2017.753 2371.844 2017.477 2371.809 2017.2 2371.693 2017.153 2371.509 2017.131 2371.426 2017.12 2371.312 2017.14 2371.206 2017.16 2371.078 2017.184 2370.963 2017.209 2370.931 2017.177 2370.874 2017.12 2370.782 2017.038 2370.724 2017.027 2370.697 2017.02 2370.603 2017.076 2370.5 2017.132 2370.389 2017.191 2370.27 2017.253 2370.216 2017.235 2370.113 2017.2 2369.883 2017.142 2369.963 2016.98 2370.043 2016.82 2370.32 2016.889 2370.401 2016.623 2370.482 2016.358 2370.344 2016.127 2370.598 2015.896 2370.851 2015.665 2370.989 2015.769 2371.186 2015.596 2371.382 2015.423 2371.497 2015.296 2371.244 2015.158 2370.989 2015.019 2370.92 2015.019 2370.656 2014.996 2370.54 2014.985 2370.457 2015.01 2370.378 2015.035 2370.276 2015.067 2370.181 2015.099 2370.032 2015.054 2369.767 2014.973 2369.547 2015.1 2369.512 2015.112 2369.479 2015.123 2369.155 2015.308 2369.109 2015.203 2369.063 2015.1 2368.925 2015.043 2368.97 2014.881 2369.017 2014.719 2369.039 2014.477 2368.912 2014.454 2368.786 2014.43 2368.752 2014.442 2368.59 2014.328 2368.428 2014.212 2368.193 2013.931 2368.193 2013.931 2368.117 2013.762 2368.04 2013.607 2367.794 2013.469 2367.547 2013.331 2367.471 2013.27 2367.24 2013.546 2367.009 2013.823 2366.794 2013.838 2366.717 2013.808 2366.64 2013.777 2366.64 2013.644 2366.44 2013.641 2366.24 2013.639 2366.255 2013.885 2365.932 2013.931 2365.61 2013.977 2365.487 2014.023 2365.363 2013.808 2365.24 2013.592 2365.409 2013.315 2365.025 2013.423 2364.64 2013.531 2364.409 2013.913 2364.301 2013.661 2364.194 2013.408 2364.317 2013.315 2364.301 2013.054 2364.286 2012.793 2364.07 2012.562 2363.963 2012.469 2363.915 2012.428 2363.851 2012.458 2363.78 2012.488 2363.695 2012.524 2363.601 2012.562 2363.517 2012.469 2363.364 2012.3 2363.179 2012.147 2363.44 2011.962 2363.701 2011.776 2363.532 2011.547 2363.701 2011.454 2363.871 2011.362 2364.086 2011.5 2364.148 2011.746 2364.209 2011.992 2364.502 2012.27 2364.625 2012.1 2364.748 2011.931 2364.701 2011.715 2364.841 2011.547 2364.979 2011.377 2365.363 2011.547 2365.379 2011.285 2365.394 2011.024 2365.009 2010.839 2364.824 2010.67 2364.64 2010.5 2364.364 2010.316 2364.194 2010.178 2364.025 2010.039 2364.086 2009.746 2363.779 2010.085 2363.47 2010.424 2363.256 2010.685 2363.056 2010.5 2362.855 2010.316 2362.701 2010.269 2362.379 2010.239 2362.056 2010.208 2361.948 2010.054 2361.902 2009.777 2361.855 2009.5 2361.794 2009.392 2361.533 2009.254 2361.424 2009.197 2361.342 2009.203 2361.272 2009.209 2361.173 2009.217 2361.099 2009.225 2361.01 2009.055 2360.855 2008.762 2360.764 2008.638 2360.872 2008.454 2360.978 2008.269 2360.779 2008.085 2361.101 2007.977 2361.217 2007.938 2361.308 2007.967 2361.39 2007.996 2361.537 2008.047 2361.651 2008.097 2361.809 2007.762 2362.056 2007.239 2362.148 2007.3 2361.978 2007.177 2361.809 2007.055 2361.779 2007.085 2361.732 2006.824 2361.686 2006.561 2361.44 2006.578 2361.378 2006.332 2361.317 2006.084 2361.425 2006.008 2361.225 2005.777 2361.025 2005.546 2360.687 2005.531 2360.671 2005.315 2360.656 2005.101 2360.425 2005.116 2360.425 2004.931 2360.425 2004.747 2360.641 2004.593 2360.764 2004.439 2360.886 2004.285 2360.825 2004.316 2360.825 2004.069 2360.825 2003.823 2360.825 2003.639 2360.732 2003.639 2360.641 2003.639 2360.486 2003.609 2360.563 2003.331 2360.641 2003.054 2360.963 2002.855 2361.086 2003.069 2361.209 2003.285 2361.194 2003.423 2361.194 2003.685 2361.194 2003.946 2361.056 2004.378 2361.255 2004.485 2361.455 2004.593 2361.609 2005.101 2361.948 2005.069 2362.286 2005.039 2362.501 2004.885 2362.656 2004.777 2362.809 2004.67 2362.932 2004.808 2363.01 2004.978 2363.086 2005.147 2363.148 2005.47 2363.302 2005.455 2363.455 2005.438 2363.61 2005.162 2363.748 2004.885 2363.885 2004.608 2363.885 2004.654 2364.025 2004.423 2364.163 2004.192 2363.902 2004.3 2364.31 2004.177 2364.716 2004.054 2364.979 2003.762 2365.04 2003.639 2365.102 2003.516 2365.009 2003.285 2364.855 2003.162 2364.701 2003.039 2364.671 2003.054 2364.517 2002.808 2364.364 2002.562 2364.178 2002.346 2364.455 2001.977 2364.733 2001.609 2365.025 2001.67 2365.347 2001.24 2365.671 2000.808 2365.701 2000.47 2365.625 2000.255 2365.548 2000.039 2365.132 1999.716 2364.979 1999.64 2364.824 1999.562 2364.286 1999.517 2364.502 1999.208 2364.716 1998.901 2365.04 1998.623 2365.271 1998.362 2365.502 1998.101 2365.625 1997.993 2365.64 1997.793 2365.655 1997.593 2365.671 1997.163 2365.917 1997.239 2366.163 1997.316 2366.087 1997.655 2366.316 1997.701 2366.547 1997.747 2366.824 1997.885 2366.917 1998.055 2367.009 1998.224 2366.824 1998.394 2366.917 1998.608 2367.009 1998.824 2367.102 1998.901 2367.271 1999.009 2367.439 1999.116 2367.486 1999.593 2367.717 1999.532 2367.948 1999.47 2368.132 1998.701 2368.363 1998.685 2368.594 1998.67 2369.117 1998.947 2369.425 1999.085 2369.732 1999.224 2369.763 1999.163 2370.086 1999.27 2370.409 1999.377 2370.285 1999.47 2370.486 1999.64 2370.686 1999.808 2370.686 2000.162 2370.87 1999.869 2371.054 1999.578 2371.408 1999.439 2371.194 1999.163 2370.978 1998.885 2370.793 1998.763 2370.563 1998.67 2370.332 1998.578 2369.655 1998.193 2369.547 1997.901 2369.439 1997.608 2369.486 1997.283 2369.24 1997.23 2369.15 1997.21 2369.053 1997.222 2368.954 1997.232 2368.78 1997.249 2368.594 1997.268 2368.409 1997.131 2368.117 1996.917 2367.687 1996.485 2367.547 1996.131 2367.409 1995.777 2367.301 1995.44 2367.225 1995.347 2367.148 1995.255 2367.055 1995.239 2367.055 1994.932 2367.055 1994.624 2367.055 1994.27 2366.917 1994.116 2366.778 1993.963 2366.64 1993.886 2366.671 1993.532 2366.701 1993.177 2366.871 1993.194 2366.748 1992.993 2366.625 1992.793 2366.316 1992.747 2366.316 1992.439 2366.316 1992.132 2366.333 1992.193 2366.316 1992.132 2366.301 1992.071 2366.301 1992.024 2366.07 1991.963 2365.839 1991.901 2365.671 1991.948 2365.625 1991.747 2365.578 1991.547 2365.646 1991.301 2365.843 1991.424 2366.04 1991.547 2366.009 1991.562 2366.117 1991.64 2366.225 1991.717 2366.348 1991.825 2366.394 1991.84 2366.44 1991.855 2366.378 1991.855 2366.594 1991.747 2366.809 1991.64 2367.193 1991.635 2367.271 1991.392 2367.348 1991.147 2367.394 1990.948 2367.394 1990.793 2367.394 1990.64 2367.378 1990.532 2367.255 1990.424 2367.132 1990.316 2366.856 1990.301 2366.886 1990.04 2366.917 1989.778 2367.024 1989.655 2367.148 1989.624 2367.271 1989.594 2367.486 1989.686 2367.702 1989.839 2367.917 1989.994 2368.193 1990.117 2368.225 1990.27 2368.255 1990.424 2368.147 1990.562 2368.208 1990.778 2368.271 1990.994 2368.147 1991.024 2368.409 1991.27 2368.67 1991.516 2368.624 1991.471 2368.901 1991.747 2369.178 1992.024 2369.686 1992.793 2369.87 1993.009 2370.056 1993.224 2370.086 1993.609 2370.44 1993.47 2370.793 1993.332 2371.147 1993.101 2370.993 1992.931 2370.84 1992.763 2370.67 1992.486 2370.732 1992.439 2370.793 1992.393 2371.054 1992.454 2371.194 1992.609 2371.332 1992.763 2371.455 1992.855 2371.44 1993.147 2371.425 1993.44 2371.366 1993.501 2371.441 1993.67 2371.516 1993.84 2371.809 1994.101 2372.01 1994.27 2372.209 1994.44 2372.255 1994.732 2372.486 1994.654 2372.716 1994.578 2372.855 1994.47 2372.87 1994.177 2372.885 1993.886 2373.01 1994.086 2373.178 1993.793 2373.347 1993.501 2373.332 1993.255 2373.332 1993.009 2373.332 1992.763 2373.609 1992.763 2373.809 1992.901 2374.008 1993.039 2374.256 1993.209 2374.424 1993.455 2374.593 1993.701 2374.732 1993.978 2374.87 1993.948 2375.009 1993.916 2375.101 1993.732 2375.04 1993.655 2374.978 1993.578 2374.748 1993.44 2374.517 1993.054 2374.286 1992.67 2374.101 1992.055 2373.932 1991.948 2373.762 1991.84 2373.301 1991.454 2373.178 1991.27 2373.055 1991.085 2372.701 1990.501 2372.671 1990.456 2372.658 1990.438 2372.629 1990.444 2372.59 1990.451 2372.528 1990.462 2372.438 1990.473 2372.363 1990.378 2372.239 1990.225 2372.086 1990.009 2371.978 1989.901 2371.87 1989.793 2371.455 1989.624 2371.886 1989.378 2372.317 1989.132 2372.317 1989.271 2372.44 1989.07 2372.563 1988.871 2372.47 1988.716 2372.393 1988.502 2372.317 1988.286 2372.255 1988.148 2372.055 1988.101 2371.855 1988.055 2371.717 1988.055 2371.656 1987.824 2371.594 1987.593 2371.578 1987.47 2371.762 1987.301 2371.948 1987.133 2372.177 1987.07 2372.024 1986.809 2371.87 1986.548 2371.624 1986.487 2371.486 1986.409 2371.347 1986.332 2371.194 1986.194 2370.978 1985.902 2370.763 1985.609 2370.702 1985.302 2370.855 1984.978 2371.009 1984.656 2371.086 1984.209 2371.347 1984.224 2371.609 1984.24 2371.594 1984.378 2371.948 1984.455 2372.301 1984.533 2372.486 1984.578 2372.701 1984.409 2372.917 1984.24 2373.317 1984.085 2373.47 1984.224 2373.624 1984.363 2373.917 1984.747 2374.271 1984.887 2374.625 1985.025 2374.64 1985.317 2374.794 1984.963 2374.947 1984.609 2374.917 1984.209 2374.762 1984.086 2374.608 1983.963 2374.256 1983.686 2374.209 1983.455 2374.163 1983.224 2374.055 1982.978 2373.87 1982.794 2373.686 1982.609 2373.563 1982.486 2373.408 1982.302 2373.255 1982.117 2373.01 1981.901 2372.87 1981.886 2372.732 1981.871 2372.594 1981.916 2372.501 1981.994 2372.408 1982.071 2371.978 1982.317 2371.825 1982.425 2371.671 1982.533 2371.471 1982.641 2371.408 1982.533 2371.347 1982.425 2371.408 1981.994 2371.563 1981.686 2371.717 1981.378 2372.116 1980.948 2372.116 1980.687 2372.116 1980.424 2372.101 1980.04 2371.84 1979.948 2371.578 1979.856 2371.393 1979.871 2371.285 1980.132 2371.179 1980.394 2371.224 1980.67 2370.978 1980.64 2370.732 1980.609 2370.578 1980.333 2370.548 1980.102 2370.516 1979.871 2370.332 1979.579 2370.409 1979.409 2370.486 1979.24 2370.67 1979.225 2370.84 1979.409 2371.009 1979.594 2371.101 1979.532 2371.209 1979.394 2371.317 1979.256 2371.471 1978.948 2371.639 1979.163 2371.809 1979.379 2372.116 1979.502 2372.147 1979.333 2372.177 1979.163 2372.548 1978.994 2372.671 1979.21 2372.794 1979.424 2373.04 1979.532 2373.133 1979.471 2373.224 1979.409 2373.44 1979.301 2373.609 1979.517 2373.778 1979.732 2373.809 1980.071 2374.101 1980.117 2374.394 1980.163 2374.593 1980.24 2374.64 1979.979 2374.686 1979.717 2374.848 1979.825 2375.059 1979.778 2375.271 1979.732 2375.248 1979.193 2375.059 1979.009 2374.87 1978.824 2374.517 1978.717 2374.148 1978.441 2373.778 1978.163 2373.086 1977.686 2372.762 1977.348 2372.44 1977.01 2372.086 1976.979 2371.932 1976.578 2371.779 1976.178 2372.055 1976.44 2371.732 1975.979 2371.408 1975.517 2371.317 1975.364 2371.179 1975.133 2371.039 1974.902 2371.255 1974.809 2370.948 1974.502 2370.64 1974.194 2370.548 1974.179 2370.393 1974.256 2370.24 1974.332 2370.162 1974.517 2369.948 1974.148 2369.732 1973.779 2369.624 1973.872 2369.393 1973.579 2369.162 1973.287 2369.101 1973.379 2369.071 1972.917 2369.039 1972.456 2368.948 1972.41 2368.963 1971.795 2368.978 1971.179 2368.978 1970.979 2368.933 1970.502 2368.886 1970.026 2368.948 1969.672 2368.84 1969.271 2368.732 1968.871 2368.886 1969.225 2368.81 1968.841 2368.732 1968.456 2368.501 1968.394 2368.562 1967.932 2368.624 1967.471 2368.547 1967.241 2368.579 1966.871 2368.609 1966.502 2368.702 1966.18 2368.624 1966.01 2368.547 1965.841 2368.286 1965.733 2368.456 1965.256 2368.624 1964.779 2368.948 1964.61 2369.101 1964.933 2369.255 1965.256 2369.302 1965.764 2369.702 1965.917 2370.101 1966.072 2370.27 1966.148 2370.656 1966.256 2371.039 1966.364 2371.656 1966.456 2371.978 1966.779 2372.301 1967.102 2372.777 1967.81 2372.947 1968.025 2373.116 1968.24 2373.025 1968.517 2373.639 1968.625 2374.256 1968.733 2374.532 1968.902 2374.962 1969.164 2375.394 1969.425 2375.655 1969.763 2375.839 1969.886 2376.024 1970.009 2376.163 1970.425 2376.625 1970.533 2377.085 1970.641 2377.316 1970.687 2377.839 1970.901 2378.363 1971.117 2378.655 1971.395 2379.039 1971.518 2379.424 1971.641 2379.378 1971.687 2380.117 1971.471 2380.855 1971.255 2380.67 1971.026 2381.885 1971.287 2383.101 1971.548 2383.531 1971.779 2384.163 1972.102 2384.792 1972.425 2384.915 1972.856 2385.777 1973.133 2386.639 1973.41 2386.67 1973.749 2387.085 1973.317 2387.5 1972.887 2387.331 1972.764 2387.547 1972.117 2387.763 1971.471 2388.577 1971.272 2389.147 1971.117 2389.715 1970.963 2390.009 1971.071 2390.1 1970.21 2390.193 1969.348 2390.316 1969.117 2389.639 1968.918 2388.962 1968.718 2388.362 1968.61 2388.178 1968.148 2387.992 1967.687 2388.377 1967.487 2387.763 1967.01 2387.146 1966.533 2386.746 1966.333 2386.731 1965.856 2386.716 1965.379 2387.593 1964.718 2387.763 1964.379 2387.931 1964.041 2387.793 1963.179 2387.793 1962.687 2387.793 1962.194 2387.746 1961.611 2388.746 1961.549 2389.747 1961.486 2390.978 1961.687 2391.3 1961.902 2391.624 1962.118 2391.993 1962.548 2392.224 1962.902 2392.454 1963.256 2392.916 1963.656 2393.285 1963.872 2393.654 1964.086 2393.885 1964.118 2394.146 1964.518 2394.408 1964.917 2394.47 1965.718 2394.915 1965.164 2395.362 1964.61 2395.224 1963.548 2395.392 1963.133 2395.562 1962.717 2396.254 1963.226 2397.424 1963.442 2398.592 1963.656 2399.331 1963.872 2400.13 1963.749 2400.931 1963.626 2401.376 1963.733 2402.038 1963.133 2402.7 1962.533 2402.438 1961.773 2402.931 1961.538 2403.423 1961.302 2404.392 1961.272 2404.807 1961.441 2405.222 1961.611 2405.131 1962.38 2405.638 1962.333 2406.146 1962.287 2407.053 1961.01 2407.592 1960.717 2408.13 1960.426 2408.377 1960.533 2408.899 1960.903 2409.422 1961.272 2409.761 1961.225 2410.407 1961.287 2411.054 1961.348 2411.315 1961.441 2411.961 1961.749 2412.607 1962.056 2412.407 1961.825 2413.052 1962.364 2413.699 1962.902 2413.592 1962.609 2413.699 1963.194 2413.807 1963.779 2413.484 1964.44 2413.699 1964.933 2413.915 1965.425 2414.13 1966.349 2414.822 1966.364 2415.515 1966.379 2416.099 1966.779 2416.407 1966.072 2416.714 1965.364 2416.623 1964.688 2417.561 1964.779 2418.499 1964.872 2418.96 1965.764 2419.668 1965.733 2420.376 1965.703 2419.437 1964.718 2421.022 1964.425 2422.607 1964.133 2423.16 1964.118 2423.607 1964.41 2424.052 1964.703 2423.868 1966.04 2424.561 1966.01 2425.252 1965.979 2425.283 1964.518 2426.621 1964.302 2427.96 1964.086 2427.991 1964.179 2428.76 1964.271 2429.53 1964.364 2430.375 1964.841 2430.729 1964.718 2431.083 1964.595 2430.975 1963.98 2431.022 1963.149 2431.068 1962.318 2431.022 1962.041 2431.606 1961.611 2432.191 1961.179 2431.883 1960.841 2431.853 1959.994 2431.821 1959.149 2431.853 1958.826 2431.406 1958.195 2430.96 1957.564 2430.837 1956.502 2431.499 1955.58 2432.16 1954.656 2432.314 1953.98 2433.191 1954.026 2434.067 1954.072 2434.79 1954.472 2435.837 1954.195 2436.883 1953.919 2437.144 1953.811 2438.176 1953.118 2439.206 1952.427 2439.282 1952.442 2439.837 1951.749 2440.39 1951.056 2441.021 1950.995 2440.975 1950.18 2440.929 1949.365 2439.329 1947.165 2438.945 1946.549 2438.56 1945.934 2438.068 1944.703 2437.437 1944.349 2436.807 1943.995 2436.375 1944.118 2436.129 1943.658 2435.883 1943.196 2435.913 1942.827 2435.576 1942.596 2435.237 1942.365 2434.175 1941.766 2434.099 1941.503 2434.021 1941.242 2434.36 1940.935 2433.929 1940.78 2433.499 1940.626 2432.76 1940.365 2432.283 1940.196 2431.806 1940.026 2431.113 1939.78 2430.776 1939.488 2430.437 1939.196 2430.314 1938.919 2429.791 1938.965 2429.268 1939.011 2428.621 1939.458 2428.129 1938.704 2427.637 1937.949 2425.822 1936.55 2425.561 1935.843 2425.299 1935.135 2425.345 1935.303 2425.16 1934.411 2424.976 1933.519 2424.822 1932.857 2424.36 1932.442 2423.899 1932.027 2423.376 1931.734 2422.838 1931.503 2422.299 1931.273 2422.207 1931.488 2421.283 1931.166 2420.361 1930.842 2420.13 1931.119 2419.992 1930.611 2419.853 1930.104 2420.098 1929.611 2420.699 1928.674 2421.299 1927.735 2421.452 1927.473 2421.545 1926.935 2421.637 1926.396 2421.607 1926.411 2422.053 1925.627 2422.499 1924.843 2423.175 1924.796 2423.022 1924.042 2422.868 1923.289 2422.376 1923.504 2422.438 1922.628 2422.499 1921.751 2422.422 1920.904 2422.592 1920.12 2422.76 1919.335 2422.622 1919.566 2422.806 1918.827 2422.991 1918.089 2423.006 1917.72 2423.052 1917.289 2423.099 1916.858 2423.315 1915.996 2423.022 1915.566 2422.73 1915.135 2422.253 1914.659 2422.099 1914.351 2421.946 1914.044 2422.314 1913.32 2422.668 1912.705 2423.022 1912.09 2422.806 1911.351 2422.361 1910.797 2421.914 1910.243 2421.437 1910.366 2421.514 1909.659 2421.592 1908.952 2421.76 1908.32 2421.961 1907.797 2422.16 1907.274 2422.76 1906.505 2422.961 1905.858 2423.16 1905.212 2423.376 1905.105 2423.052 1904.936 2422.73 1904.767 2422.561 1904.905 2422.222 1904.674 2422.107 1904.596 2422.047 1904.629 2421.997 1904.661 2421.899 1904.726 2421.839 1904.791 2421.484 1904.028 2420.946 1902.874 2420.823 1902.582 2420.452 1902.536 2420.083 1902.489 2419.714 1902.536 2419.299 1902.459 2418.884 1902.382 2418.007 1902.044 2417.576 1901.505 2417.146 1900.967 2417.038 1900.874 2417.038 1899.859 2417.038 1898.844 2416.468 1897.905 2417.146 1897.352 2417.822 1896.797 2418.1 1896.937 2418.453 1896.337 2418.807 1895.737 2418.761 1895.598 2419.145 1895.152 2419.53 1894.705 2420.007 1894.182 2420.037 1893.722 2420.068 1893.26 2420.053 1893.228 2419.899 1892.567 2419.746 1891.906 2420.145 1891.997 2420.083 1891.582 2420.022 1891.167 2419.807 1891.29 2419.469 1890.906 2419.13 1890.521 2419.206 1889.967 2419.622 1889.352 2420.037 1888.736 2418.884 1887.782 2418.515 1887.444 2418.145 1887.106 2417.852 1886.398 2417.852 1885.86 2417.852 1885.322 2417.93 1885.26 2417.776 1884.43 2417.623 1883.599 2417.899 1883.337 2417.453 1882.737 2417.007 1882.137 2417.099 1882.214 2416.714 1881.66 2416.33 1881.107 2416.084 1880.69 2415.637 1880.599 2415.192 1880.506 2414.9 1879.999 2414.084 1880.09 2413.268 1880.183 2412.3 1880.368 2411.7 1880.383 2411.43 1880.389 2411.128 1880.305 2410.84 1880.221 2410.488 1880.118 2410.158 1880.014 2409.946 1880.08 2409.56 1880.198 2409.454 1880.552 2408.761 1880.398 2408.068 1880.245 2408.269 1879.906 2407.453 1880.198 2406.638 1880.491 2406.392 1880.706 2405.807 1880.783 2405.222 1880.859 2404.838 1881.014 2403.961 1881.107 2403.084 1881.198 2402.408 1881.444 2402.253 1881.245 2402.1 1881.045 2402.008 1880.444 2402.3 1879.922 2402.592 1879.399 2402.976 1878.829 2403.084 1878.445 2403.192 1878.06 2403.161 1878.276 2404.023 1877.091 2404.885 1875.907 2405.069 1875.937 2405.608 1875.307 2406.146 1874.676 2406.238 1874.353 2406.93 1873.784 2407.623 1873.214 2407.746 1873.521 2407.715 1872.813 2407.684 1872.107 2407.807 1871.692 2407.423 1871.168 2407.038 1870.645 2406.638 1870.323 2406.962 1869.707 2407.284 1869.092 2407.5 1868.507 2408.161 1867.814 2408.823 1867.122 2409.331 1867.492 2409.269 1866.46 2409.208 1865.43 2409.068 1864.722 2409.269 1864.322 2409.469 1863.922 2410.007 1863.322 2410.745 1862.799 2411.484 1862.277 2411.899 1862.092 2411.914 1861.491 2411.929 1860.891 2411.592 1860.399 2412.162 1860.23 2412.73 1860.061 2412.792 1860.23 2413.684 1860.23 2414.576 1860.23 2415.315 1859.999 2415.515 1859.461 2415.714 1858.922 2415.868 1858.584 2416.084 1857.708 2416.299 1856.831 2416.453 1856.568 2416.161 1855.984 2415.868 1855.4 2415.392 1855.231 2415.253 1854.708 2415.114 1854.184 2414.438 1853.339 2414.269 1852.722 2414.099 1852.108 2414.038 1852.061 2413.715 1851.307 2413.391 1850.554 2413.438 1850.37 2412.684 1850.2 2411.929 1850.031 2411.268 1850.077 2411.054 1849.707 2410.838 1849.338 2410.392 1848.785 2409.823 1848.354 2409.253 1847.923 2409.161 1847.539 2408.577 1847.446 2407.992 1847.354 2407.546 1847.338 2407.254 1846.554 2406.962 1845.769 2406.777 1845.323 2406.807 1844.277 2406.839 1843.231 2406.591 1842.4 2406.254 1841.83 2405.915 1841.262 2405.576 1841.308 2405.576 1840.478 2405.576 1839.647 2405.777 1839.185 2405.407 1838.308 2405.038 1837.431 2405.038 1836.339 2405.362 1835.631 2405.684 1834.924 2405.546 1834.739 2406.33 1833.585 2407.115 1832.432 2407.869 1831.523 2408.253 1831.169 2408.638 1830.817 2409.437 1830.262 2409.823 1829.355 2410.207 1828.448 2410.438 1827.585 2410.638 1826.986 2410.838 1826.386 2410.577 1825.816 2411.684 1826.293 2412.792 1826.77 2413.484 1827.293 2414.114 1827.139 2414.745 1826.986 2414.868 1826.308 2414.684 1825.893 2414.499 1825.477 2414.253 1825.216 2414.038 1824.309 2413.823 1823.401 2413.484 1822.816 2413.361 1822.048 2413.238 1821.279 2413.146 1820.294 2412.531 1820.279 2412.261 1820.271 2411.965 1820.368 2411.663 1820.463 2411.278 1820.587 2410.884 1820.71 2410.53 1820.616 2409.899 1820.447 2409.13 1820.063 2408.608 1819.94 2408.085 1819.817 2407.837 1819.802 2407.192 1819.54 2406.546 1819.278 2406.192 1818.863 2405.915 1818.493 2405.638 1818.124 2404.5 1815.432 2404.345 1814.939 2404.192 1814.447 2403.654 1814.032 2402.747 1813.447 2401.838 1812.863 2401.071 1812.324 2400.701 1811.74 2400.331 1811.156 2400.162 1810.987 2399.992 1810.171 2399.823 1809.355 2399.916 1809.232 2399.377 1808.448 2398.839 1807.664 2397.331 1805.263 2397.407 1804.432 2397.485 1803.602 2397.269 1804.017 2397.839 1802.864 2397.839 1802.864 2398.515 1801.741 2398.638 1800.987 2398.761 1800.233 2398.7 1798.217 2398.7 1798.033 2398.7 1797.848 2398.761 1797.141 2398.854 1796.587 2398.946 1796.033 2398.731 1796.064 2399.085 1795.371 2399.439 1794.679 2399.284 1794.526 2399.3 1793.695 2399.316 1792.864 2399.192 1792.449 2399.331 1791.941 2399.469 1791.434 2399.361 1790.633 2399.838 1790.449 2400.315 1790.264 2400.761 1790.417 2400.853 1790.756 2400.946 1791.095 2400.761 1791.525 2401.223 1791.525 2401.685 1791.525 2401.7 1791.264 2401.885 1790.972 2402.069 1790.68 2403.3 1791.048 2404.239 1791.141 2405.177 1791.233 2406.192 1791.172 2406.653 1791.464 2407.115 1791.756 2407.453 1792.08 2407.515 1792.433 2407.576 1792.786 2407.576 1792.911 2407.546 1793.079 2407.515 1793.248 2407.238 1793.326 2407.546 1793.526 2407.854 1793.725 2408.223 1793.833 2408.176 1793.403 2408.13 1792.972 2408.007 1792.633 2408.146 1792.433 2408.284 1792.233 2409.545 1792.387 2409.792 1792.125 2410.038 1791.864 2410.346 1791.849 2410.761 1791.464 2411.177 1791.08 2411.3 1790.818 2411.607 1790.618 2411.914 1790.417 2412.223 1790.276 2412.391 1790.37 2412.561 1790.464 2412.853 1790.402 2412.592 1790.741 2412.33 1791.08 2412.13 1791.172 2412.084 1791.464 2412.037 1791.756 2411.792 1791.665 2411.992 1792.018 2412.192 1792.371 2412.33 1792.356 2412.361 1792.803 2412.391 1793.248 2412.423 1793.449 2412.33 1793.818 2412.238 1794.187 2412.115 1794.125 2412.145 1794.587 2412.177 1795.049 2411.838 1795.433 2412.238 1795.541 2412.637 1795.649 2413.007 1795.572 2413.16 1794.987 2413.315 1794.403 2413.192 1794.572 2413.3 1793.941 2413.406 1793.31 2413.576 1792.602 2413.715 1792.371 2413.715 1792.371 2413.784 1791.726 2414.211 1792.095 2414.637 1792.464 2415.306 1793.503 2415.503 1793.641 2415.699 1793.779 2416.241 1794.276 2416.483 1794.368 2416.725 1794.46 2416.922 1794.598 2416.991 1794.356 2417.061 1794.114 2416.969 1793.699 2416.725 1793.503 2416.483 1793.306 2415.93 1792.822 2415.653 1792.51 2415.376 1792.199 2414.857 1791.368 2414.777 1791.172 2414.695 1790.976 2414.615 1790.698 2414.926 1790.422 2415.237 1790.145 2416.138 1789.199 2416.345 1789.048 2416.553 1788.899 2418.491 1787.502 2419.31 1786.949 2420.13 1786.396 2422.749 1784.653 2423.141 1784.319 2423.534 1783.984 2425.437 1782.784 2426.049 1782.287 2426.66 1781.792 2427.053 1781.607 2427.595 1781.052 2428.137 1780.499 2428.252 1780.337 2428.39 1779.564 2428.53 1778.791 2428.656 1777.349 2428.945 1776.761 2429.234 1776.172 2429.614 1775.873 2429.88 1775.734 2430.021 1775.659 2430.103 1775.691 2430.178 1775.722 2430.245 1775.75 2430.307 1775.776 2430.398 1775.734 2430.595 1775.642 2430.653 1775.249 2430.364 1775.169 2430.076 1775.088 2429.567 1774.962 2429.234 1774.753 2428.899 1774.546 2428.587 1774.338 2428.275 1773.991 2427.964 1773.645 2427.757 1773.761 2427.861 1773.161 2427.964 1772.561 2427.688 1772.515 2428.091 1771.915 2428.495 1771.315 2428.772 1770.704 2428.83 1770.415 2428.887 1770.127 2429.014 1769.849 2429.234 1769.445 2429.452 1769.042 2429.533 1768.973 2429.903 1768.881 2430.061 1768.84 2430.295 1768.914 2430.539 1768.99 2430.862 1769.089 2431.204 1769.189 2431.402 1769.019 2431.748 1768.719 2432.186 1768.672 2432.452 1768.177 2432.717 1767.681 2432.533 1767.335 2432.937 1767.381 2433.341 1767.426 2433.398 1767.865 2433.652 1767.439 2433.907 1767.011 2434.252 1766.619 2433.918 1766.377 2433.583 1766.135 2432.417 1765.292 2432.141 1764.681 2431.864 1764.07 2431.968 1764.323 2432.291 1763.526 2432.614 1762.731 2433.179 1762.235 2433.306 1761.935 2433.434 1761.635 2433.41 1761.289 2433.687 1761.358 2433.964 1761.427 2434.46 1761.311 2434.31 1761.092 2434.16 1760.873 2433.767 1760.747 2434.033 1760.447 2434.298 1760.146 2434.229 1760.158 2434.54 1759.974 2434.853 1759.788 2434.991 1759.292 2435.06 1759.177 2435.129 1759.062 2435.625 1757.884 2435.717 1757.527 2435.81 1757.169 2435.648 1756.858 2436.237 1756.743 2436.825 1756.627 2437.379 1756.327 2437.425 1755.819 2437.472 1755.312 2437.518 1755.081 2437.829 1754.815 2438.14 1754.55 2438.048 1754.608 2438.209 1754.146 2438.371 1753.685 2438.209 1753.755 2438.591 1753.178 2438.971 1752.6 2438.74 1752.438 2439.144 1752.393 2439.345 1752.37 2439.38 1752.421 2439.424 1752.472 2439.469 1752.525 2439.525 1752.577 2439.767 1752.554 2440.252 1752.509 2440.448 1752.22 2440.575 1752.22 2440.702 1752.22 2440.841 1752.323 2441.037 1752.405 2441.232 1752.485 2441.348 1752.566 2441.683 1752.566 2442.017 1752.566 2442.778 1752.554 2443.044 1752.381 2443.309 1752.208 2444.037 1752.208 2444.395 1751.747 2444.752 1751.285 2445.398 1750.962 2445.859 1750.443 2446.321 1749.924 2445.836 1749.682 2446.459 1749.116 2447.083 1748.551 2447.14 1748.516 2447.347 1748.585 2447.555 1748.654 2447.936 1748.827 2448.19 1748.447 2448.444 1748.065 2448.986 1747.512 2449.206 1747.547 2449.425 1747.581 2449.494 1747.674 2449.841 1747.685 2450.186 1747.696 2450.636 1747.478 2450.844 1747.259 2451.052 1747.039 2451.398 1746.821 2451.836 1746.417 2452.275 1746.012 2452.748 1746.046 2452.966 1746.162 2453.186 1746.277 2453.89 1746.508 2454.19 1746.612 2454.49 1746.716 2454.94 1746.854 2455.24 1747.074 2455.54 1747.294 2455.771 1747.316 2456.347 1747.316 2456.924 1747.316 2457.247 1747.408 2457.455 1747.72 2457.663 1748.031 2457.917 1748.309 2457.708 1748.469 2457.501 1748.631 2457.224 1748.769 2457.317 1748.943 2457.408 1749.116 2457.697 1749.289 2457.639 1749.462 2457.582 1749.635 2457.766 1749.924 2458.032 1750.004 2458.297 1750.086 2458.816 1750.131 2459.105 1749.958 2459.394 1749.786 2459.37 1749.393 2459.74 1749.382 2460.109 1749.37 2460.282 1749.382 2460.409 1749.635 2460.535 1749.889 2460.662 1749.831 2460.604 1750.259 2460.547 1750.685 2460.467 1750.604 2460.467 1750.87 2460.467 1751.135 2460.409 1751.332 2460.524 1751.505 2460.64 1751.678 2460.502 1751.885 2460.675 1752.116 2460.847 1752.347 2460.997 1752.323 2461.078 1752.612 2461.159 1752.9 2460.859 1753.535 2461.078 1753.87 2461.297 1754.204 2461.493 1754.688 2461.748 1754.954 2462.001 1755.219 2462.117 1755.323 2462.417 1755.635 2462.716 1755.947 2463.27 1756.847 2463.396 1757.354 2463.524 1757.862 2463.327 1758.253 2463.594 1758.75 2463.858 1759.246 2463.974 1759.581 2464.424 1759.766 2464.874 1759.95 2465.173 1760.019 2465.566 1760.274 2465.959 1760.527 2465.797 1760.574 2466.039 1760.654 2466.281 1760.734 2466.905 1760.723 2467.274 1760.804 2467.643 1760.885 2467.793 1761.254 2468.058 1761.393 2468.324 1761.531 2468.496 1761.577 2469.282 1761.738 2470.066 1761.9 2470.619 1762.258 2471.254 1762.639 2471.889 1763.019 2471.808 1763.423 2472.374 1763.435 2472.938 1763.446 2472.938 1763.423 2473.389 1763.297 2473.839 1763.169 2473.885 1763.284 2474.208 1763.33 2474.531 1763.377 2474.901 1763.354 2475.246 1763.273 2475.592 1763.192 2475.939 1762.997 2476.389 1762.869 2476.838 1762.742 2477.3 1762.581 2478.051 1762.684 2478.8 1762.788 2479.47 1763.019 2479.908 1763.169 2480.347 1763.319 2480.392 1763.215 2480.773 1763.539 2481.154 1763.861 2481.523 1764 2481.766 1764.346 2482.008 1764.692 2481.939 1765.338 2482.424 1765.592 2482.908 1765.846 2483.53 1765.858 2484.027 1766.146 2484.523 1766.435 2485.054 1767.173 2485.492 1767.635 2485.931 1768.096 2486.415 1769.111 2486.738 1769.516 2487.062 1769.918 2487.384 1770.691 2487.696 1770.819 2488.008 1770.946 2488.769 1771.153 2489.289 1771.13 2489.493 1771.12 2489.712 1771.146 2489.927 1771.171 2490.256 1771.21 2490.58 1771.248 2490.846 1771.164 2491.284 1771.026 2491.25 1770.749 2491.781 1770.842 2492.312 1770.935 2492.843 1771.338 2493.373 1771.315 2493.903 1771.292 2494.353 1771.073 2495.022 1771.142 2495.692 1771.211 2497.123 1771.442 2497.445 1771.626 2497.769 1771.811 2498.484 1772.065 2498.818 1771.984 2499.153 1771.903 2500.006 1771.568 2500.457 1771.581 2500.907 1771.592 2502.096 1771.673 2502.742 1771.753 2503.388 1771.834 2503.86 1771.868 2504.277 1771.834 2504.692 1771.799 2505.51 1771.823 2505.96 1771.684 2506.411 1771.546 2507.242 1771.084 2507.726 1771.062 2508.21 1771.038 2508.246 1771.211 2508.626 1771.419 2509.006 1771.626 2509.283 1771.765 2509.756 1771.708 2510.229 1771.65 2510.529 1771.95 2510.911 1772.042 2511.291 1772.134 2511.626 1772.33 2512.444 1771.857 2513.264 1771.384 2513.01 1771.153 2513.53 1771.015 2513.777 1770.948 2514.003 1771.004 2514.197 1771.059 2514.409 1771.119 2514.585 1771.179 2514.718 1771.084 2514.971 1770.9 2515.052 1770.404 2515.698 1770.3 2516.344 1770.196 2516.772 1770.311 2517.464 1770.415 2518.156 1770.519 2518.618 1770.68 2518.894 1770.98 2519.171 1771.28 2519.114 1771.35 2519.771 1771.708 2520.429 1772.065 2520.533 1772.25 2520.891 1772.272 2521.248 1772.296 2521.386 1772.745 2522.056 1772.596 2522.725 1772.446 2522.574 1772.239 2523.29 1772.203 2524.006 1772.168 2524.167 1772.538 2524.744 1772.63 2525.321 1772.723 2525.552 1772.757 2526.083 1772.641 2526.614 1772.526 2526.81 1772.792 2527.318 1772.827 2527.825 1772.861 2527.778 1772.699 2528.333 1772.481 2528.886 1772.261 2529.671 1771.984 2530.086 1772.088 2530.501 1772.192 2530.41 1772.734 2530.836 1772.745 2531.263 1772.757 2532.209 1772.377 2532.66 1772.203 2533.109 1772.03 2533.351 1771.903 2533.721 1771.523 2534.09 1771.142 2534.586 1770.738 2534.99 1770.922 2535.394 1771.107 2535.267 1771.408 2535.785 1771.107 2536.305 1770.807 2536.698 1770.391 2537.193 1770.334 2537.69 1770.276 2537.759 1770.588 2538.221 1770.773 2538.437 1770.858 2538.66 1770.849 2538.895 1770.839 2539.16 1770.828 2539.437 1770.817 2539.732 1770.946 2540.285 1771.188 2540.54 1771.511 2540.805 1771.742 2541.071 1771.973 2541.531 1773.034 2541.797 1773.449 2542.062 1773.865 2541.809 1774.038 2542.224 1774.431 2542.639 1774.822 2543.181 1775.284 2543.747 1775.33 2544.312 1775.377 2544.682 1775.895 2544.958 1775.988 2545.236 1776.08 2546.217 1775.722 2546.597 1775.48 2546.977 1775.238 2547.497 1775.249 2547.797 1775.411 2548.097 1775.573 2548.454 1775.942 2548.974 1775.93 2549.493 1775.919 2549.573 1775.803 2550.024 1775.699 2550.473 1775.595 2551.028 1775.768 2551.397 1775.377 2551.766 1774.984 2552.066 1774.8 2552.239 1774.407 2552.412 1774.015 2552.354 1773.727 2552.792 1773.438 2553.231 1773.15 2553.427 1772.965 2553.727 1772.561 2554.027 1772.157 2553.958 1771.881 2554.535 1771.892 2555.112 1771.903 2555.781 1772.019 2556.128 1772.434 2556.474 1772.85 2556.623 1773.369 2556.958 1773.427 2557.292 1773.484 2557.869 1773.623 2557.905 1773.854 2557.938 1774.084 2557.558 1774.418 2557.789 1774.673 2558.02 1774.926 2558.562 1775.364 2558.873 1775.595 2559.184 1775.826 2559.554 1775.93 2559.473 1776.265 2559.393 1776.599 2559.277 1776.796 2559.393 1777.141 2559.508 1777.487 2559.473 1777.869 2559.888 1778.122 2560.304 1778.376 2560.419 1778.515 2560.419 1778.942 2560.419 1779.369 2560.639 1779.853 2561.134 1779.957 2561.631 1780.061 2561.874 1780.268 2562.116 1780.579 2562.358 1780.892 2562.011 1781.214 2562.3 1781.641 2562.589 1782.069 2562.716 1782.842 2562.877 1783.211 2563.039 1783.58 2562.981 1784.11 2563.362 1784.376 2563.742 1784.641 2564.008 1785.403 2564.135 1785.794 2564.261 1786.187 2564.388 1787.133 2564.515 1787.584 2564.643 1788.033 2564.874 1789.141 2564.93 1789.383 2564.989 1789.625 2565.046 1789.891 2565.323 1790.11 2565.6 1790.329 2565.969 1791.126 2566.235 1791.426 2566.5 1791.726 2566.534 1791.898 2566.996 1792.371 2567.458 1792.845 2567.908 1793.526 2568.381 1794.021 2568.854 1794.518 2569.108 1795.233 2569.765 1795.637 2570.423 1796.04 2571.138 1796.826 2571.68 1796.941 2572.223 1797.057 2572.799 1797.368 2573.042 1797.53 2573.284 1797.69 2573.341 1797.621 2574.011 1797.552 2574.68 1797.483 2574.934 1797.979 2575.107 1798.429 2575.28 1798.879 2575.188 1799.109 2575.442 1799.536 2575.696 1799.964 2575.857 1800.356 2576.25 1800.575 2576.642 1800.795 2577.104 1801.06 2577.438 1801.21 2577.772 1801.359 2578.096 1802.11 2578.603 1802.514 2579.111 1802.918 2579.538 1802.883 2579.862 1802.814 2580.184 1802.745 2580.415 1802.306 2580.83 1802.294 2581.246 1802.283 2581.592 1802.79 2581.823 1802.814 2582.054 1802.836 2582.33 1802.848 2582.907 1802.572 2583.232 1802.415 2583.172 1802.435 2583.153 1802.455 2583.138 1802.47 2583.148 1802.486 2583.38 1802.421 2583.911 1802.272 2584.13 1802.468 2584.233 1802.179 2584.337 1801.89 2584.395 1801.868 2584.73 1801.89 2585.064 1801.914 2585.365 1801.983 2585.192 1802.11 2585.019 1802.237 2584.719 1802.306 2585.042 1802.468 2585.365 1802.629 2585.779 1803.045 2586.137 1802.998 2586.496 1802.952 2586.599 1802.732 2586.98 1802.71 2587.36 1802.687 2587.292 1802.998 2587.638 1803.16 2587.984 1803.321 2588.618 1803.621 2588.849 1803.483 2589.08 1803.345 2589.184 1803.436 2589.333 1803.16 2589.484 1802.883 2589.819 1802.745 2589.853 1802.536 2589.888 1802.329 2590.095 1802.11 2590.279 1802.086 2590.464 1802.063 2590.834 1802.121 2591.007 1802.168 2591.18 1802.214 2591.341 1802.41 2591.722 1802.767 2592.103 1803.125 2592.46 1803.609 2592.795 1803.645 2593.129 1803.678 2593.315 1803.529 2593.684 1803.505 2594.052 1803.483 2594.156 1803.76 2594.825 1803.991 2595.494 1804.222 2595.68 1804.233 2595.945 1804.267 2596.211 1804.302 2596.269 1804.279 2596.406 1804.509 2596.544 1804.74 2596.442 1804.637 2596.58 1804.891 2596.718 1805.144 2596.74 1805.352 2596.695 1805.49 2596.649 1805.628 2596.511 1805.744 2596.371 1805.802 2596.233 1805.859 2595.922 1805.871 2595.634 1805.928 2595.345 1805.986 2595.207 1806.125 2594.825 1806.31 2594.445 1806.494 2593.557 1806.805 2593.246 1807.314 2592.933 1807.821 2592.622 1808.318 2592.668 1808.722 2592.715 1809.124 2592.771 1809.506 2593.026 1809.771 2593.28 1810.037 2593.603 1810.406 2593.788 1810.601 2593.972 1810.798 2594.03 1810.971 2594.075 1811.317 2594.122 1811.663 2594.25 1812.218 2594.399 1812.251 2594.548 1812.287 2594.594 1811.998 2594.803 1811.963 2595.01 1811.929 2594.999 1812.078 2594.952 1812.529 2594.907 1812.978 2594.756 1813.417 2595.103 1814.028 2595.449 1814.639 2595.472 1814.997 2595.749 1815.263 2596.025 1815.528 2596.025 1815.77 2596.153 1816.14 2596.28 1816.509 2596.095 1816.613 2596.429 1816.993 2596.764 1817.375 2596.926 1817.559 2597.237 1817.744 2597.548 1817.928 2598.219 1818.482 2598.299 1818.932 2598.379 1819.381 2598.472 1819.521 2598.241 1820.074 2598.01 1820.629 2597.952 1821.031 2597.988 1821.735 2598.021 1822.439 2598.079 1823.732 2598.148 1824.159 2598.219 1824.585 2598.264 1825.116 2598.645 1825.451 2599.025 1825.786 2599.232 1825.982 2599.603 1826.282 2599.971 1826.582 2600.629 1826.79 2600.849 1826.813 2601.068 1826.835 2601.622 1826.848 2601.61 1827.25 2601.599 1827.655 2601.506 1828.116 2601.46 1828.427 2601.413 1828.739 2601.068 1828.774 2601.333 1829.351 2601.599 1829.928 2601.495 1830.573 2601.691 1830.989 2601.886 1831.405 2602.164 1831.877 2602.383 1832.212 2602.602 1832.547 2602.683 1832.823 2603.11 1832.696 2603.536 1832.57 2603.468 1832.235 2603.825 1832.316 2603.94 1832.341 2604.02 1832.316 2604.08 1832.29 2604.205 1832.236 2604.245 1832.182 2604.356 1832.605 2604.518 1833.227 2604.276 1833.585 2604.587 1834.151 2604.898 1834.715 2605.382 1835.35 2605.891 1835.823 2606.399 1836.297 2606.952 1836.885 2607.299 1837.185 2607.645 1837.485 2608.279 1837.635 2609.006 1838.051 2609.733 1838.466 2610.725 1838.984 2611.106 1839.1 2611.486 1839.215 2611.936 1839.7 2612.374 1839.481 2612.813 1839.262 2612.778 1839.077 2613.298 1839.135 2613.817 1839.193 2614.486 1839.885 2614.555 1840.197 2614.625 1840.508 2614.533 1840.45 2614.428 1840.889 2614.324 1841.327 2614.176 1841.534 2614.579 1841.927 2614.983 1842.32 2615.097 1842.793 2615.41 1843.046 2615.721 1843.3 2616.056 1843.369 2616.332 1843.335 2616.609 1843.3 2616.609 1843.439 2616.944 1843.497 2617.07 1843.518 2617.195 1843.497 2617.315 1843.475 2617.511 1843.442 2617.691 1843.406 2617.82 1843.566 2618.029 1843.819 2617.555 1843.935 2617.82 1844.212 2618.086 1844.488 2618.282 1844.846 2618.617 1845.088 2618.952 1845.331 2619.09 1845.792 2619.563 1845.607 2620.036 1845.423 2620.221 1845.319 2620.221 1845.631 2620.221 1845.943 2620.14 1846.081 2620.428 1846.347 2620.717 1846.611 2620.798 1846.889 2621.016 1847.027 2621.236 1847.166 2621.698 1847.096 2621.871 1847.211 2622.044 1847.327 2622.124 1847.477 2621.871 1847.708 2621.617 1847.939 2621.189 1848.539 2621.063 1848.734 2620.936 1848.93 2620.556 1849.53 2620.832 1849.519 2621.109 1849.507 2621.386 1849.507 2621.213 1849.692 2621.04 1849.876 2620.878 1849.865 2620.543 1850.119 2620.209 1850.373 2619.828 1850.673 2619.608 1850.765 2619.39 1850.858 2619.182 1850.834 2618.79 1850.973 2618.397 1851.111 2618.017 1851.388 2617.833 1851.526 2617.647 1851.666 2617.22 1851.862 2616.621 1851.988 2616.398 1852.035 2616.124 1852.007 2615.836 1851.979 2615.346 1851.933 2614.813 1851.887 2614.428 1852.208 2613.817 1852.715 2613.182 1853.199 2612.721 1853.672 2612.259 1854.145 2611.198 1855.104 2611.117 1855.288 2611.037 1855.473 2609.087 1857.792 2609.006 1858.196 2608.925 1858.6 2608.914 1858.518 2609.075 1858.658 2609.237 1858.796 2609.479 1858.645 2609.225 1859.327 2608.971 1860.007 2608.891 1860.491 2608.683 1861.01 2608.476 1861.53 2608.429 1861.519 2608.371 1862.061 2608.314 1862.603 2608.256 1863.099 2608.347 1863.238 2608.44 1863.376 2608.649 1863.203 2608.29 1863.838 2607.932 1864.473 2607.206 1864.991 2607.102 1865.395 2606.999 1865.799 2606.837 1866.723 2606.675 1867.253 2606.513 1867.784 2605.891 1869.053 2605.786 1869.377 2605.682 1869.699 2605.348 1870.137 2605.348 1870.552 2605.348 1870.968 2605.071 1871.511 2605.106 1872.411 2605.14 1873.31 2604.956 1873.784 2605.187 1874.279 2605.417 1874.776 2605.083 1874.81 2605.302 1875.238 2605.522 1875.665 2605.648 1876.38 2606.099 1876.968 2606.548 1877.557 2606.641 1877.983 2606.779 1878.283 2606.917 1878.583 2606.594 1878.548 2607.044 1879.334 2607.494 1880.118 2607.967 1880.913 2608.245 1881.444 2608.521 1881.975 2608.982 1883.175 2609.351 1883.672 2609.722 1884.167 2610.206 1885.009 2610.39 1885.344 2610.575 1885.679 2611.302 1887.802 2611.463 1888.114 2611.625 1888.425 2612.225 1889.371 2612.329 1889.487 2612.432 1889.602 2614.095 1892.971 2614.164 1893.04 2614.233 1893.109 2615.121 1894.09 2615.213 1894.182 2615.306 1894.275 2616.448 1895.948 2616.816 1896.352 2617.187 1896.756 2617.717 1897.367 2618.006 1897.76 2618.293 1898.151 2618.975 1899.432 2619.286 1899.917 2619.597 1900.401 2620.255 1901.405 2620.44 1901.658 2620.625 1901.913 2620.636 1902.051 2621.087 1902.582 2621.536 1903.113 2622.735 1905.363 2623.013 1905.789 2623.29 1906.216 2623.67 1906.828 2624.017 1907.128 2624.363 1907.428 2624.559 1907.82 2624.616 1908.132 2624.674 1908.443 2624.813 1908.652 2625.09 1909.054 2625.367 1909.458 2625.771 1910.324 2626.116 1910.855 2626.462 1911.386 2629.312 1916.266 2629.382 1916.324 2629.451 1916.381 2630.12 1916.728 2630.558 1916.728 2630.997 1916.728 2631.413 1917.097 2631.701 1917.223 2631.99 1917.35 2632.532 1917.535 2632.832 1917.466 2633.132 1917.397 2633.178 1917.259 2633.512 1917.339 2633.847 1917.42 2634.262 1917.766 2634.643 1918.031 2635.024 1918.296 2635.935 1919.058 2636.466 1919.566 2636.997 1920.073 2637.505 1920.604 2637.332 1920.65 2637.158 1920.697 2637.343 1920.719 2636.859 1920.685 2636.374 1920.65 2636.028 1920.812 2635.855 1920.939 2635.682 1921.066 2635.531 1921.204 2635.531 1921.204 2635.531 1921.204 2634.942 1921.781 2634.828 1922.034 2634.713 1922.289 2634.804 1922.427 2634.516 1922.554 2634.227 1922.681 2633.951 1922.796 2633.87 1922.796 2633.789 1922.796 2633.154 1922.774 2633.547 1922.635 2633.94 1922.496 2634.124 1922.438 2634.124 1922.22 2634.124 1922 2634.193 1921.839 2633.974 1921.734 2633.754 1921.632 2633.881 1921.389 2633.478 1921.596 2633.074 1921.805 2632.554 1921.863 2632.521 1921.989 2632.486 1922.116 2632.439 1922.312 2632.508 1922.727 2632.577 1923.142 2632.497 1923.304 2632.728 1923.627 2632.958 1923.951 2633.143 1924.077 2633.432 1924.331 2633.72 1924.585 2634.966 1926.385 2635.208 1926.604 2635.451 1926.823 2635.577 1926.985 2635.844 1927.504 2636.108 1928.024 2637.678 1930.492 2638.209 1930.943 2638.74 1931.392 2639.224 1931.935 2639.789 1932.453 2640.354 1932.973 2641.174 1933.619 2641.578 1933.839 2641.981 1934.057 2642.927 1934.07 2643.24 1934.046 2643.551 1934.023 2643.689 1933.954 2644 1934.012 2644.102 1934.029 2644.162 1934.013 2644.207 1933.997 2644.3 1933.962 2644.325 1933.928 2644.497 1934.208 2644.75 1934.623 2644.554 1934.692 2644.877 1934.911 2645.201 1935.131 2645.235 1935.165 2645.558 1935.269 2645.881 1935.373 2645.754 1935.223 2646.274 1935.592 2646.793 1935.962 2647.416 1936.146 2648.188 1936.469 2648.961 1936.793 2649.965 1937.035 2650.461 1937.253 2650.958 1937.473 2651.869 1937.968 2652.435 1938.188 2653 1938.407 2653.335 1938.672 2653.796 1938.812 2654.258 1938.95 2655.146 1938.903 2655.896 1939.007 2656.646 1939.111 2657.442 1939.272 2658.008 1939.596 2658.572 1939.918 2658.469 1940.115 2659.207 1940.3 2659.946 1940.484 2661.504 1940.877 2662.368 1941.164 2663.234 1941.453 2663.696 1941.637 2664.145 1941.823 2664.595 1942.008 2664.849 1941.984 2665.495 1942.134 2666.141 1942.284 2666.65 1942.307 2667.296 1942.399 2667.942 1942.492 2669.868 1942.999 2670.353 1943.565 2670.837 1944.13 2671.045 1944.061 2671.068 1944.869 2671.092 1945.677 2671.345 1946.277 2672.222 1947.21 2673.1 1948.145 2673.676 1948.791 2673.953 1949.299 2674.23 1949.806 2674.841 1950.222 2675.407 1950.626 2675.972 1951.03 2677.471 1951.861 2678.302 1952.391 2679.134 1952.922 2682.595 1955.368 2683.368 1955.899 2684.141 1956.429 2685.156 1956.753 2685.791 1957.249 2686.426 1957.745 2686.748 1957.871 2687.395 1958.357 2688.041 1958.841 2688.341 1959.175 2688.652 1959.348 2688.963 1959.521 2689.229 1959.51 2689.529 1959.683 2689.829 1959.856 2690.025 1960.179 2690.313 1960.272 2690.602 1960.365 2690.66 1960.365 2690.982 1960.491 2691.306 1960.618 2691.433 1960.825 2691.664 1960.849 2691.726 1960.854 2691.783 1960.849 2691.831 1960.844 2691.957 1960.831 2692.03 1960.818 2692.056 1961.01 2692.09 1961.276 2692.044 1961.645 2692.217 1961.829 2692.39 1962.013 2692.61 1962.257 2692.805 1962.349 2693.002 1962.441 2692.863 1962.302 2693.302 1962.522 2693.74 1962.741 2694.064 1962.868 2694.225 1963.248 2694.386 1963.63 2694.467 1963.906 2694.56 1964.252 2694.653 1964.598 2694.779 1965.014 2695.033 1965.187 2695.286 1965.36 2695.679 1965.302 2695.91 1965.349 2696.141 1965.394 2696.152 1965.476 2696.314 1965.718 2696.475 1965.96 2696.429 1966.04 2696.683 1966.318 2696.936 1966.595 2697.156 1967.264 2697.294 1967.379 2697.432 1967.495 2697.744 1967.795 2697.849 1967.979 2697.951 1968.163 2698.078 1968.094 2698.125 1968.452 2698.171 1968.81 2697.721 1968.914 2697.79 1969.179 2697.86 1969.445 2698.051 1969.525 2698.128 1969.871 2698.205 1970.218 2697.79 1970.298 2697.663 1970.656 2697.536 1971.013 2697.063 1971.406 2697.132 1971.683 2697.202 1971.959 2697.121 1972.156 2697.121 1972.49 2697.121 1972.825 2697.178 1973.252 2697.305 1973.391 2697.432 1973.529 2697.905 1973.609 2697.525 1973.875 2697.145 1974.14 2696.717 1974.671 2696.499 1974.913 2696.279 1975.155 2696.232 1975.179 2695.864 1975.352 2695.495 1975.526 2695.264 1975.352 2695.102 1975.79 2694.94 1976.228 2695.206 1976.39 2694.964 1976.679 2694.722 1976.967 2694.202 1977.198 2694.271 1977.694 2694.34 1978.191 2694.329 1978.398 2694.502 1978.755 2694.675 1979.113 2694.733 1979.828 2694.86 1980.163 2694.986 1980.497 2694.906 1980.821 2695.171 1980.879 2695.437 1980.936 2695.482 1981.19 2695.921 1980.844 2696.359 1980.497 2696.521 1980.475 2696.914 1980.463 2697.305 1980.452 2697.56 1980.441 2697.849 1980.601 2698.136 1980.763 2698.321 1980.913 2698.563 1981.041 2698.806 1981.167 2698.817 1981.328 2698.829 1981.536 2698.84 1981.743 2698.713 1981.871 2698.829 1982.09 2698.944 1982.309 2699.013 1982.402 2699.002 1982.551 2698.99 1982.702 2698.771 1982.62 2698.829 1982.932 2698.886 1983.244 2699.036 1983.417 2698.898 1983.578 2698.76 1983.74 2698.667 1983.764 2698.633 1983.866 2698.598 1983.971 2698.529 1984.224 2698.333 1984.155 2698.136 1984.086 2698.218 1983.671 2697.974 1983.786 2697.732 1983.902 2697.479 1984.04 2697.329 1984.237 2697.178 1984.432 2697.041 1984.663 2696.879 1984.617 2696.717 1984.57 2696.532 1984.328 2696.37 1984.294 2696.21 1984.259 2695.655 1984.248 2695.586 1984.432 2695.517 1984.617 2695.426 1984.767 2695.471 1985.148 2695.517 1985.528 2695.24 1986.036 2695.448 1986.256 2695.655 1986.474 2695.99 1986.682 2695.899 1986.982 2695.806 1987.282 2695.633 1987.42 2695.506 1987.34 2695.379 1987.26 2694.271 1986.947 2694.122 1986.913 2693.971 1986.878 2692.967 1986.82 2692.494 1987.189 2692.021 1987.559 2691.664 1988.135 2691.029 1988.09 2690.395 1988.044 2689.782 1987.697 2689.045 1987.375 2688.595 1987.178 2688.274 1987.185 2687.979 1987.194 2687.79 1987.199 2687.612 1987.204 2687.417 1987.155 2686.922 1987.029 2687.199 1986.509 2686.068 1986.256 2684.936 1986.001 2683.887 1985.852 2683.495 1985.136 2683.102 1984.421 2682.629 1982.932 2681.707 1983.06 2680.783 1983.186 2679.883 1983.117 2678.948 1982.817 2678.015 1982.517 2677.449 1982.32 2676.86 1983.117 2676.272 1983.913 2674.748 1984.524 2674.091 1984.513 2673.433 1984.501 2673.1 1984.455 2672.118 1984.963 2671.137 1985.47 2670.237 1985.609 2669.453 1984.928 2668.669 1984.248 2667.099 1983.509 2666.419 1983.22 2665.737 1982.932 2665 1982.182 2664.331 1982.482 2663.661 1982.782 2663.05 1982.771 2662.426 1983.706 2661.803 1984.639 2663.418 1983.982 2663.58 1984.617 2663.742 1985.252 2663.927 1985.956 2663.349 1986.013 2662.772 1986.071 2662.945 1985.69 2662.208 1985.356 2661.469 1985.021 2661.515 1984.397 2660.869 1985.055 2660.222 1985.714 2657.223 1987.016 2656.911 1986.936 2656.6 1986.855 2655.447 1986.694 2654.465 1985.943 2653.484 1985.194 2652.111 1984.317 2651.707 1984.097 2651.304 1983.879 2649.735 1983.533 2648.997 1983.578 2648.258 1983.624 2647.116 1983.648 2647.462 1984.282 2647.808 1984.917 2648.442 1986.059 2648.304 1986.29 2648.166 1986.52 2647.3 1986.994 2647.278 1987.571 2647.254 1988.148 2647.958 1989.094 2647.727 1990.052 2647.496 1991.009 2646.527 1992.475 2646.216 1993.028 2645.905 1993.581 2645.765 1993.524 2645.616 1993.79 2645.466 1994.054 2645.592 1994.343 2645.304 1994.447 2645.016 1994.551 2644.577 1994.747 2643.977 1994.62 2643.377 1994.494 2641.427 1994.297 2641.07 1994.274 2640.712 1994.251 2640.089 1993.79 2639.604 1994.332 2639.12 1994.874 2638.705 1995.671 2638.578 1995.924 2638.451 1996.178 2638.301 1996.224 2637.747 1996.42 2637.192 1996.617 2636.697 1996.859 2636.293 1997.09 2635.89 1997.319 2635.001 1997.355 2634.655 1997.043 2634.309 1996.732 2633.663 1996.904 2633.223 1997.355 2632.785 1997.805 2632.694 1997.874 2632.035 1998.036 2631.377 1998.197 2630.917 1998.427 2630.04 1998.336 2629.73 1998.303 2629.533 1998.315 2629.376 1998.326 2629.087 1998.349 2628.937 1998.37 2628.481 1998.116 2627.777 1997.724 2627.721 1997.204 2627.801 1996.489 2627.882 1995.774 2628.008 1994.527 2628.055 1994.147 2628.101 1993.766 2627.917 1993.212 2627.548 1993.108 2627.177 1993.005 2626.14 1993.097 2625.701 1993.132 2625.263 1993.166 2623.648 1992.89 2622.966 1992.739 2622.286 1992.59 2621.005 1992.324 2620.74 1992.601 2620.474 1992.877 2619.875 1993.363 2619.494 1993.35 2619.113 1993.339 2618.433 1992.844 2618.26 1992.555 2618.086 1992.266 2617.29 1992.197 2617.22 1992.244 2617.151 1992.289 2616.321 1992.197 2615.836 1992.717 2615.352 1993.236 2614.775 1993.652 2614.406 1993.466 2614.036 1993.281 2613.875 1992.924 2613.344 1992.866 2613.097 1992.839 2612.771 1992.876 2612.452 1992.915 2612.086 1992.958 2611.73 1993.002 2611.521 1992.948 2611.128 1992.844 2610.679 1992.659 2610.298 1992.439 2609.917 1992.22 2610.31 1991.782 2609.42 1992.175 2608.533 1992.566 2608.336 1992.393 2608.048 1992.682 2607.76 1992.97 2607.818 1992.855 2607.241 1993.086 2606.664 1993.317 2606.594 1993.386 2606.352 1993.87 2606.11 1994.354 2605.971 1994.909 2605.591 1994.932 2605.434 1994.94 2605.396 1994.905 2605.347 1994.87 2605.277 1994.82 2605.182 1994.768 2604.68 1994.851 2603.825 1994.989 2603.745 1995.047 2603.306 1995.44 2602.868 1995.831 2602.763 1996.639 2601.61 1996.917 2600.456 1997.193 2600.121 1997.297 2599.729 1996.87 2599.337 1996.444 2598.61 1995.82 2597.826 1995.797 2597.433 1995.785 2597.046 1995.811 2596.699 1995.836 2596.351 1995.863 2596.043 1995.889 2595.807 1995.878 2595.334 1995.855 2594.987 1995.889 2594.492 1995.705 2593.995 1995.52 2593.684 1995.255 2592.933 1996.073 2592.184 1996.893 2591.953 1997.493 2591.398 1997.759 2590.845 1998.023 2590.014 1998.266 2589.922 1998.439 2589.83 1998.612 2589.403 1998.97 2589.484 1999.351 2589.564 1999.731 2589.819 2000.528 2589.148 2001.07 2588.48 2001.612 2588.537 2001.832 2587.614 2001.601 2586.692 2001.37 2586.38 2001.277 2585.803 2001.162 2585.226 2001.046 2584.753 2000.724 2584.062 2000.989 2583.369 2001.255 2582.238 2002.363 2581.788 2002.823 2581.337 2003.285 2581.719 2003.654 2580.449 2003.62 2579.18 2003.585 2578.511 2003.4 2578.176 2003.654 2577.843 2003.909 2577.669 2004.404 2576.965 2004.266 2576.261 2004.127 2576.019 2003.793 2575.719 2004.035 2575.419 2004.278 2574.23 2004.324 2574.196 2004.9 2574.161 2005.477 2574.196 2006.193 2573.803 2006.019 2573.679 2005.964 2573.575 2005.975 2573.491 2005.987 2573.31 2006.01 2573.216 2006.034 2573.192 2005.397 2573.157 2004.462 2573.261 2004.311 2572.857 2003.966 2572.454 2003.62 2572.568 2003.389 2571.808 2003.62 2571.046 2003.851 2570.527 2003.585 2570.112 2004.266 2569.696 2004.946 2569.372 2004.982 2569.765 2005.35 2570.158 2005.719 2570.48 2005.997 2570.723 2006.274 2570.965 2006.55 2570.746 2006.654 2571.058 2007.358 2571.369 2008.062 2572.062 2009.366 2571.992 2010.012 2571.922 2010.658 2572.269 2011.154 2571.564 2011.374 2570.862 2011.592 2570.504 2011.754 2570.007 2011.743 2569.759 2011.736 2569.534 2011.852 2569.336 2011.967 2569.139 2012.083 2568.968 2012.198 2568.83 2012.193 2568.554 2012.181 2568.323 2012.111 2567.711 2011.662 2567.1 2011.212 2566.938 2010.392 2566.546 2010.981 2566.154 2011.569 2565.738 2011.938 2565.773 2012.32 2565.807 2012.7 2565.773 2013.462 2565.161 2013.324 2564.55 2013.184 2564.077 2013.231 2563.846 2013.151 2563.615 2013.069 2563.373 2012.989 2563.224 2013.266 2563.073 2013.542 2563.224 2014.339 2562.485 2014.304 2561.747 2014.27 2561.447 2014.213 2561.054 2014.305 2560.661 2014.397 2559.946 2014.939 2559.693 2014.754 2559.439 2014.57 2558.447 2013.97 2557.996 2013.831 2557.547 2013.693 2556.554 2013.646 2556.243 2013.404 2555.932 2013.162 2555.504 2013.093 2555.308 2012.966 2555.112 2012.838 2553.427 2012.735 2552.989 2012.608 2552.55 2012.48 2552.181 2012.134 2551.432 2012.134 2550.682 2012.134 2550.116 2012.262 2550.013 2012.331 2549.909 2012.4 2549.643 2012.977 2549.251 2012.815 2548.858 2012.654 2548.789 2012.631 2548.467 2012.516 2548.143 2012.4 2547.912 2012.389 2547.578 2012.504 2547.243 2012.62 2547.405 2013.058 2546.851 2012.942 2546.297 2012.827 2545.939 2012.735 2545.455 2012.804 2544.971 2012.873 2544.209 2013.427 2544.174 2013.427 2544.14 2013.427 2543.217 2013.519 2542.963 2013.611 2542.708 2013.704 2542.466 2013.715 2542.282 2014.108 2542.097 2014.5 2541.833 2014.73 2541.624 2014.87 2541.417 2015.008 2541.128 2015.388 2540.724 2015.308 2540.32 2015.227 2540.205 2014.973 2539.479 2015.146 2538.752 2015.319 2538.659 2015.354 2538.566 2015.423 2538.475 2015.492 2537.644 2016.081 2537.551 2016.162 2537.459 2016.242 2537.275 2016.52 2536.64 2016.3 2536.005 2016.081 2536.005 2016.023 2535.521 2016.196 2535.036 2016.369 2534.632 2016.6 2534.366 2016.727 2534.102 2016.854 2533.917 2017.304 2533.744 2017.384 2533.571 2017.466 2533.109 2017.557 2532.833 2017.384 2532.555 2017.211 2532.394 2017.165 2532.059 2017.096 2531.897 2017.062 2531.484 2017.121 2531.095 2017.18 2530.682 2017.243 2530.294 2017.305 2530.259 2017.258 2530.19 2017.165 2529.625 2016.611 2529.221 2016.254 2528.817 2015.896 2528.171 2015.769 2528.218 2015.503 2528.263 2015.239 2528.402 2015.181 2528.471 2014.881 2528.54 2014.581 2528.713 2014.235 2528.875 2014.097 2529.036 2013.957 2529.255 2013.808 2529.186 2013.542 2529.117 2013.277 2528.84 2013.196 2528.506 2013.358 2528.171 2013.519 2528.033 2013.75 2527.698 2013.935 2527.363 2014.119 2526.994 2014.454 2526.625 2014.442 2526.256 2014.43 2525.899 2014.57 2525.852 2014.592 2525.806 2014.615 2525.563 2015.17 2525.171 2014.708 2524.779 2014.246 2524.698 2014.154 2524.064 2014.073 2523.429 2013.993 2522.887 2013.957 2522.714 2014.397 2522.541 2014.834 2522.345 2015.03 2522.044 2015.434 2521.745 2015.838 2521.652 2016.138 2521.226 2016.173 2520.798 2016.207 2520.094 2016.242 2519.979 2016.219 2519.864 2016.196 2519.183 2015.816 2519.205 2016.104 2519.229 2016.392 2519.575 2016.554 2519.31 2016.68 2519.045 2016.807 2518.963 2017.027 2518.629 2016.842 2518.294 2016.658 2518.087 2016.449 2517.972 2016.658 2517.856 2016.865 2517.787 2017.015 2517.556 2016.922 2517.326 2016.831 2516.957 2016.969 2517.037 2016.6 2517.117 2016.231 2517.095 2015.954 2516.737 2016.069 2516.379 2016.185 2515.998 2016.254 2515.964 2016.438 2515.929 2016.623 2516.056 2016.796 2516.091 2016.82 2516.126 2016.842 2516.253 2016.993 2516.056 2017.073 2515.86 2017.153 2515.445 2017.293 2515.433 2017.407 2515.422 2017.524 2515.549 2017.811 2515.744 2017.777 2515.831 2017.761 2515.921 2017.84 2516.005 2017.918 2516.111 2018.016 2516.21 2018.113 2516.287 2018.031 2516.426 2017.881 2516.829 2017.696 2516.933 2017.835 2517.037 2017.973 2517.314 2018.226 2517.083 2018.446 2516.853 2018.666 2516.541 2018.977 2516.253 2018.954 2515.964 2018.93 2515.929 2018.781 2515.756 2018.861 2515.583 2018.942 2515.456 2018.826 2515.398 2019.057 2515.34 2019.288 2515.583 2019.346 2515.26 2019.461 2514.938 2019.577 2514.707 2019.438 2514.649 2019.646 2514.591 2019.854 2514.741 2020.234 2514.556 2020.281 2514.372 2020.327 2514.291 2020.038 2513.979 2019.969 2513.668 2019.9 2513.703 2020.327 2513.403 2020.418 2513.102 2020.511 2513.057 2020.165 2512.699 2020.003 2512.341 2019.843 2512.087 2020.003 2512.053 2019.692 2512.018 2019.381 2512.179 2018.919 2511.799 2018.861 2511.418 2018.804 2510.945 2018.781 2510.795 2018.746 2510.645 2018.712 2510.299 2018.77 2510.229 2018.584 2510.16 2018.4 2509.78 2018.319 2510.056 2018.111 2510.334 2017.904 2510.391 2018.019 2510.449 2017.823 2510.507 2017.626 2510.622 2017.165 2510.38 2017.073 2510.138 2016.98 2509.745 2017.177 2509.537 2017.211 2509.33 2017.246 2509.145 2017.211 2509.052 2017.096 2508.961 2016.98 2508.752 2017.084 2508.672 2017.177 2508.591 2017.269 2508.13 2017.211 2508.106 2017.004 2508.084 2016.796 2507.957 2016.485 2507.633 2016.692 2507.311 2016.9 2506.953 2016.727 2507.184 2017.177 2507.414 2017.626 2507.564 2017.766 2507.622 2017.835 2507.68 2017.904 2507.115 2018.215 2507.691 2018.261 2507.887 2018.276 2508.003 2018.27 2508.081 2018.265 2508.232 2018.254 2508.239 2018.243 2508.406 2018.388 2508.66 2018.608 2508.845 2018.55 2508.741 2018.815 2508.637 2019.081 2508.868 2019.45 2508.257 2019.403 2507.645 2019.357 2507.137 2019.415 2506.641 2019.312 2506.145 2019.208 2505.614 2019.07 2505.372 2018.954 2505.13 2018.839 2504.968 2018.93 2504.748 2018.93 2504.53 2018.93 2504.126 2018.815 2503.919 2018.781 2503.711 2018.746 2503.388 2018.55 2503.664 2018.435 2503.941 2018.319 2504.022 2018.042 2503.873 2017.984 2503.722 2017.926 2503.746 2017.893 2503.433 2017.904 2503.122 2017.915 2502.995 2017.869 2502.938 2017.8 2502.88 2017.731 2502.729 2017.719 2502.649 2017.777 2502.569 2017.835 2502.429 2018.088 2502.314 2017.926 2502.198 2017.766 2502.256 2017.708 2502.198 2017.511 2502.142 2017.315 2502.083 2016.98 2501.865 2017.2 2501.645 2017.419 2501.76 2017.466 2501.53 2017.535 2501.299 2017.604 2501.207 2017.731 2500.941 2017.557 2500.677 2017.384 2500.526 2017.419 2500.168 2017.096 2499.811 2016.773 2499.673 2016.831 2499.188 2016.785 2499.04 2016.769 2498.93 2016.777 2498.841 2016.785 2498.635 2016.801 2498.537 2016.817 2498.345 2016.578 2498.069 2016.231 2498.173 2016.069 2497.745 2016.15 2497.318 2016.231 2497.387 2016.196 2496.881 2016.369 2496.372 2016.542 2496.223 2016.347 2495.761 2016.323 2495.607 2016.315 2495.464 2016.328 2495.332 2016.34 2495.067 2016.367 2494.849 2016.392 2494.688 2016.254 2494.446 2016.047 2494.722 2015.931 2494.273 2015.931 2493.823 2015.931 2493.984 2016.058 2493.685 2016.058 2493.385 2016.058 2493.245 2016.196 2493.003 2015.965 2492.761 2015.734 2492.669 2015.712 2492.472 2015.607 2492.277 2015.503 2492.657 2015.365 2492.381 2015.239 2492.103 2015.112 2491.93 2015.043 2491.908 2015.25 2491.884 2015.458 2492.126 2015.643 2491.677 2015.7 2491.226 2015.758 2491.008 2015.665 2490.869 2015.619 2490.731 2015.574 2490.719 2015.631 2490.465 2015.734 2490.211 2015.838 2490.234 2015.838 2489.958 2015.619 2489.68 2015.4 2489.553 2015.377 2489.345 2015.503 2489.138 2015.631 2489.116 2015.619 2489 2015.527 2488.885 2015.434 2489.011 2015.146 2488.723 2015.296 2488.434 2015.447 2488.55 2015.388 2488.365 2015.527 2488.181 2015.665 2488.112 2015.734 2487.604 2015.734 2487.095 2015.734 2485.504 2015.943 2485.111 2016.023 2484.719 2016.104 2484.05 2016.116 2483.75 2016.462 2483.45 2016.807 2483.599 2017.049 2482.897 2017.165 2482.193 2017.28 2481.465 2017.315 2481.177 2017.327 2480.889 2017.338 2480.878 2017.338 2480.474 2017.524 2480.07 2017.708 2479.827 2017.753 2479.643 2017.881 2479.458 2018.008 2479.042 2018.297 2478.961 2018.354 2478.881 2018.412 2479.077 2018.688 2478.281 2018.723 2477.912 2018.738 2477.825 2018.693 2477.798 2018.647 2477.767 2018.594 2477.817 2018.54 2477.6 2018.584 2477.196 2018.666 2476.907 2018.815 2476.607 2018.873 2476.308 2018.93 2476.089 2018.965 2475.812 2018.908 2475.534 2018.85 2475.212 2019.023 2475.097 2019.057 2474.981 2019.092 2474.646 2019.323 2474.381 2019.3 2474.115 2019.277 2473.781 2019.438 2473.193 2019.727 2472.604 2020.016 2471.936 2020.165 2471.427 2020.131 2470.919 2020.096 2470.597 2020.05 2470.354 2020.269 2470.112 2020.489 2469.513 2021.122 2469.062 2021.342 2468.612 2021.562 2468.231 2021.838 2467.816 2021.815 2467.401 2021.793 2466.997 2022.046 2466.674 2022.069 2466.35 2022.092 2466.27 2022.173 2466.097 2021.884 2465.924 2021.596 2465.508 2021.48 2465.428 2021.491 2465.346 2021.504 2465.346 2021.584 2465.497 2021.757 2465.646 2021.931 2465.682 2022.173 2465.624 2022.253 2465.566 2022.335 2465.67 2022.404 2465.416 2022.553 2465.162 2022.704 2465.451 2022.808 2464.782 2022.888 2464.113 2022.968 2463.767 2023.05 2463.467 2022.888 2463.167 2022.726 2462.716 2022.715 2462.381 2022.704 2462.048 2022.692 2461.77 2022.865 2461.517 2022.877 2461.262 2022.888 2460.871 2022.992 2460.675 2022.934 2460.478 2022.877 2460.362 2023.061 2460.189 2023.061 2460.016 2023.061 2459.532 2023.257 2459.382 2023.061 2459.232 2022.865 2459.185 2022.588 2458.816 2022.635 2458.448 2022.681 2458.032 2022.808 2458.124 2022.981 2458.217 2023.154 2458.367 2023.246 2458.181 2023.339 2457.997 2023.43 2457.986 2023.512 2457.732 2023.454 2457.479 2023.396 2457.201 2023.285 2457.051 2023.473 2456.902 2023.661 2456.602 2023.696 2456.498 2023.938 2456.393 2024.181 2456.162 2024.411 2456.116 2024.63 2456.071 2024.849 2455.771 2025.358 2455.494 2025.622 2455.216 2025.888 2455.263 2026.004 2454.813 2026.119 2454.363 2026.235 2454.155 2026.062 2454.063 2026.395 2453.97 2026.73 2453.901 2027.146 2453.682 2027.065 2453.463 2026.984 2453.509 2026.777 2453.406 2026.557 2453.301 2026.338 2453.024 2026.235 2452.932 2026.107 2452.84 2025.98 2452.864 2025.726 2452.678 2025.691 2452.619 2025.68 2452.555 2025.69 2452.493 2025.7 2452.364 2025.723 2452.249 2025.745 2452.217 2025.565 2452.171 2025.3 2452.402 2025.127 2452.471 2024.907 2452.54 2024.688 2452.32 2024.676 2452.148 2024.445 2451.975 2024.216 2452.031 2024.007 2452.009 2023.914 2451.986 2023.823 2451.871 2023.788 2451.755 2023.741 2451.64 2023.696 2451.49 2023.661 2451.444 2023.73 2451.398 2023.799 2451.305 2024.03 2451.098 2023.938 2450.89 2023.845 2450.982 2023.719 2450.601 2023.73 2450.221 2023.741 2450.243 2023.812 2449.863 2023.927 2449.483 2024.042 2449.379 2024.1 2449.102 2024.076 2448.824 2024.054 2448.64 2023.823 2448.364 2023.719 2448.256 2023.679 2448.2 2023.685 2448.162 2023.691 2448.098 2023.701 2448.075 2023.711 2447.948 2023.534 2447.74 2023.246 2447.694 2023.141 2447.429 2023.073 2447.163 2023.003 2447.175 2022.842 2446.956 2022.877 2446.736 2022.911 2446.69 2023.108 2446.621 2023.177 2446.552 2023.246 2446.621 2023.477 2446.287 2023.43 2445.952 2023.384 2445.779 2023.303 2445.663 2023.499 2445.548 2023.696 2445.686 2023.845 2445.341 2023.881 2444.994 2023.914 2444.821 2023.914 2444.786 2024.042 2444.752 2024.169 2444.833 2024.516 2444.498 2024.607 2444.164 2024.7 2444.06 2024.861 2443.898 2024.723 2443.737 2024.585 2443.355 2024.181 2443.113 2024.1 2442.871 2024.019 2442.363 2023.914 2442.167 2023.972 2441.971 2024.03 2441.948 2023.914 2441.567 2023.881 2441.186 2023.845 2441.406 2023.869 2440.99 2023.927 2440.575 2023.985 2440.725 2024.1 2440.24 2024.054 2439.755 2024.007 2439.491 2024.007 2439.398 2023.972 2439.306 2023.938 2439.191 2023.938 2439.04 2023.95 2438.891 2023.961 2438.614 2024.065 2438.591 2024.111 2438.567 2024.157 2438.418 2024.445 2438.279 2024.4 2438.14 2024.354 2438.198 2024.238 2437.898 2024.019 2437.676 2023.857 2437.129 2023.871 2436.765 2023.884 2436.635 2023.889 2436.528 2023.894 2436.468 2023.892 2436.387 2023.888 2436.339 2023.897 2436.297 2023.907 2436.218 2023.926 2436.168 2023.945 2435.995 2023.869 2435.729 2023.754 2435.671 2023.914 2435.544 2023.914 2435.417 2023.914 2435.579 2023.927 2435.025 2023.869 2434.471 2023.812 2434.344 2023.938 2434.218 2023.972 2434.091 2024.007 2433.894 2024.285 2433.687 2024.192 2433.479 2024.1 2433.572 2023.914 2433.191 2023.869 2432.994 2023.845 2432.75 2023.876 2432.538 2023.907 2432.338 2023.937 2432.166 2023.966 2432.095 2023.95 2431.944 2023.914 2431.875 2023.927 2431.748 2024.065 2431.622 2024.203 2431.415 2024.088 2431.218 2023.996 2431.022 2023.903 2431.033 2023.73 2430.583 2023.788 2430.133 2023.845 2430.238 2023.985 2430.087 2023.972 2429.936 2023.961 2429.822 2023.869 2429.591 2023.719 2429.36 2023.569 2429.279 2023.707 2429.129 2023.776 2428.979 2023.845 2428.794 2023.914 2428.587 2023.845 2428.379 2023.776 2427.975 2023.812 2427.917 2023.927 2427.861 2024.042 2427.641 2024.065 2427.502 2024.065 2427.364 2024.065 2426.971 2024.157 2426.948 2024.261 2426.926 2024.365 2427.133 2024.688 2426.614 2024.654 2426.43 2024.641 2426.235 2024.647 2426.046 2024.654 2425.704 2024.665 2425.39 2024.676 2425.241 2024.573 2425.01 2024.411 2424.803 2024.376 2424.641 2024.216 2424.479 2024.054 2424.052 2024.007 2423.903 2023.892 2423.752 2023.776 2423.615 2023.799 2423.153 2023.823 2422.691 2023.845 2422.426 2024.019 2422.069 2023.927 2421.711 2023.834 2421.227 2024.054 2421.156 2024.1 2421.087 2024.145 2421.099 2024.492 2420.752 2024.492 2420.407 2024.492 2419.992 2024.538 2419.703 2024.503 2419.415 2024.469 2419.368 2024.688 2419.103 2024.711 2418.837 2024.734 2418.469 2024.918 2418.053 2024.792 2417.849 2024.729 2417.68 2024.75 2417.533 2024.771 2417.382 2024.793 2417.252 2024.815 2417.129 2024.745 2416.887 2024.607 2416.969 2024.4 2416.692 2024.48 2416.414 2024.561 2416.414 2024.423 2416.553 2024.7 2416.692 2024.976 2417.291 2024.907 2416.899 2025.173 2416.507 2025.438 2415.779 2025.946 2415.665 2026.049 2415.55 2026.153 2415.088 2026.511 2415.042 2026.637 2414.995 2026.764 2414.891 2026.984 2414.615 2027.226 2414.337 2027.468 2413.749 2028.323 2413.795 2028.6 2413.842 2028.876 2414.13 2028.934 2413.564 2029.211 2413 2029.488 2412.896 2029.626 2412.7 2029.684 2412.503 2029.742 2412.296 2029.718 2412.054 2029.822 2411.812 2029.926 2411.337 2029.984 2411.396 2030.122 2411.453 2030.261 2411.488 2030.491 2411.465 2030.537 2411.441 2030.584 2411.453 2030.677 2411.21 2030.699 2410.968 2030.722 2410.899 2030.849 2410.761 2030.873 2410.622 2030.895 2410.426 2030.977 2410.299 2030.873 2410.173 2030.768 2410.15 2030.688 2410.011 2030.757 2409.873 2030.826 2409.884 2031.022 2409.7 2031.011 2409.515 2030.999 2409.446 2030.93 2409.318 2030.826 2409.26 2030.778 2409.205 2030.786 2409.154 2030.793 2409.09 2030.801 2409.03 2030.81 2408.973 2030.722 2408.869 2030.561 2408.823 2030.515 2408.834 2030.388 2408.845 2030.261 2408.996 2030.133 2408.811 2029.891 2408.627 2029.649 2407.876 2029.165 2407.612 2029.211 2407.345 2029.258 2407.254 2029.591 2407.426 2029.731 2407.599 2029.869 2407.727 2029.96 2407.692 2030.18 2407.657 2030.399 2407.53 2030.504 2407.357 2030.722 2407.184 2030.942 2406.965 2030.953 2406.965 2031.161 2406.965 2031.368 2407.196 2031.495 2406.908 2031.577 2406.619 2031.657 2406.377 2031.795 2406.192 2031.726 2406.008 2031.657 2406.066 2031.507 2405.764 2031.426 2405.465 2031.346 2405.165 2031.368 2405.131 2031.45 2405.096 2031.53 2404.889 2031.623 2405.049 2031.899 2405.211 2032.176 2405.28 2032.314 2405.373 2032.51 2405.465 2032.707 2405.5 2033.076 2405.696 2033.227 2405.893 2033.376 2406.053 2033.48 2405.984 2033.607 2405.932 2033.703 2405.78 2033.839 2405.629 2033.839 2405.581 2033.839 2405.533 2033.825 2405.488 2033.791"/>
</clipPath>
<path id="font_4_698" d="M.2460022 .5740051V.42300416H.47000123V.29299928H.2460022V.13000489H.5V0H.07499695V.70399478H.5V.5740051H.2460022Z"/>
<path id="font_4_705" d="M.2460022 .13000489H.45899964V0H.07499695V.70199587H.2460022V.13000489Z"/>
<path id="font_4_3" d="M0 0Z"/>
<path id="font_4_709" d="M.2460022 .272995V0H.07499695V.70199587H.352005C.40667216 .70199587 .45350138 .6919963 .49249269 .6719971 .53149417 .65199789 .5608266 .6256663 .5804901 .5930023 .60016378 .5603383 .6100006 .5250041 .6100006 .4869995 .6100006 .45499674 .6021678 .42282615 .5865021 .39048768 .57083639 .3581594 .54367068 .3304952 .5050049 .30749513 .4663391 .28449504 .41533915 .272995 .352005 .272995H.2460022M.352005 .40299989C.37800599 .40299989 .39850364 .4106649 .41349793 .42599488 .4285024 .44133506 .43600465 .46166993 .43600465 .4869995 .43600465 .5116679 .42833457 .53200277 .41299439 .54800418 .3976644 .56400558 .3773346 .5720062 .352005 .5720062H.2460022V.40299989H.352005Z"/>
<path id="font_4_714" d="M.24299622 .70199587V.28300477C.24299622 .2410024 .25332643 .20866394 .27398683 .18598938 .29465739 .163325 .32499696 .1519928 .3650055 .1519928 .40500389 .1519928 .43566896 .163325 .45700074 .18598938 .47833253 .20866394 .4889984 .2410024 .4889984 .28300477V.70199587H.66000369V.28300477C.66000369 .22100322 .64600118 .16816712 .6179962 .12449646 .5900014 .080835979 .55333456 .04800415 .5079956 .026000977 .46266685 .0039978029 .41400147-.007003784 .3619995-.007003784 .30999757-.007003784 .26183067 .0039978029 .21749878 .026000977 .17316692 .04800415 .13783264 .080835979 .11149597 .12449646 .08516947 .16816712 .072006229 .22100322 .072006229 .28300477V.70199587H.24299622Z"/>
<path id="font_4_707" d="M.7030029 0H.5319977L.2460022 .44299317V0H.07499695V.70399478H.2460022L.5319977 .2610016V.70399478H.7030029V0Z"/>
<path id="font_4_713" d="M.58099368 .70199587V.5720062H.38900758V0H.21800232V.5720062H.026992798V.70199587H.58099368Z"/>
<path id="font_4_708" d="M.3939972 .7120056C.45999656 .7120056 .5204976 .69667056 .5755005 .66600039 .63050338 .6353302 .6738383 .59266158 .7055054 .5379944 .7371724 .48332725 .753006 .42166139 .753006 .35299684 .753006 .28433229 .7370046 .22249858 .70500186 .16749573 .6729991 .11250305 .6296641 .06967163 .57499697 .039001466 .5203298 .008331299 .45999656-.007003784 .3939972-.007003784 .32799784-.007003784 .26749674 .008331299 .2124939 .039001466 .15750122 .06967163 .1140035 .11250305 .08200073 .16749573 .049997968 .22249858 .033996583 .28433229 .033996583 .35299684 .033996583 .42166139 .049997968 .48332725 .08200073 .5379944 .1140035 .59266158 .15750122 .6353302 .2124939 .66600039 .26749674 .69667056 .32799784 .7120056 .3939972 .7120056M.3939972 .5549927C.3373362 .5549927 .2921702 .5366618 .25849916 .5 .22482808 .46333824 .20799256 .41433717 .20799256 .35299684 .20799256 .29166667 .22482808 .2426656 .25849916 .20599365 .2921702 .16933187 .3373362 .15100098 .3939972 .15100098 .44999696 .15100098 .49482728 .16933187 .52848818 .20599365 .56215927 .2426656 .57899478 .29166667 .57899478 .35299684 .57899478 .41433717 .56215927 .46333824 .52848818 .5 .49482728 .5366618 .44999696 .5549927 .3939972 .5549927Z"/>
</defs>
<g id="layer_1" data-name="Layer 1">
<path transform="matrix(2,0,0,-2,5207.429,1462.4956)" d="M0 0H293.451V-293.451H148.971V-144.482H0Z" fill="#c60b1e" fill-rule="evenodd"/>
<path transform="matrix(2,0,0,-2,5207.4289,1462.4971)" d="M0 0V-144.481H148.971V-293.45H293.45V0Z" fill="#c60b1e"/>
<g clip-path="url(#clip_1)">
<path transform="matrix(2,0,0,-2,5363.57,2578.883)" d="M0 0C-94.757-94.757-248.271-94.757-343.028 0-437.785 94.756-437.785 248.271-343.028 343.028-297.29 388.766-236.188 414.071-171.514 414.071V558.552C-270.566 558.552-369.617 520.765-445.192 445.192-596.34 294.044-596.34 48.984-445.192-102.164L-171.514-375.842 102.164-102.164C177.739-26.589 215.525 72.462 215.525 171.514H71.044C71.044 106.84 45.738 45.736 0 0" fill="#ffc400" fill-rule="evenodd"/>
</g>
<g clip-path="url(#clip_2)">
<path transform="matrix(2,0,0,-2,0,6000)" d="M2085.445 1334.716H2897.31V2269.1109H2085.445Z" fill="#ffc400"/>
</g>
<g clip-path="url(#clip_3)">
<path transform="matrix(2,0,0,-2,4672.869,2032.2764)" d="M0 0V-49.977-96.582-99.954-149.931-199.908H483.05V-149.931-99.954-96.582-49.977 0Z" fill="#ffc400"/>
<path transform="matrix(2,0,0,-2,0,6000)" d="M2819.485 1733.976H2336.435V1812.021H2819.485Z" fill="#c60b1e"/>
<path transform="matrix(2,0,0,-2,0,6000)" d="M2819.485 1958.838H2336.435V2033.839H2819.485Z" fill="#c60b1e"/>
</g>
<use data-text="E" xlink:href="#font_4_698" transform="matrix(690.2498,0,0,-690.2498,3331.5274,4075.1055)" fill="#c60b1e"/>
<use data-text="L" xlink:href="#font_4_705" transform="matrix(690.2498,0,0,-690.2498,3726.3504,4075.1055)" fill="#c60b1e"/>
<use data-text=" " xlink:href="#font_4_3" transform="matrix(690.2498,0,0,-690.2498,4056.98,4075.1055)" fill="#c60b1e"/>
<use data-text="P" xlink:href="#font_4_709" transform="matrix(690.2498,0,0,-690.2498,4264.0549,4075.1055)" fill="#c60b1e"/>
<use data-text="U" xlink:href="#font_4_714" transform="matrix(690.2498,0,0,-690.2498,4704.434,4075.1055)" fill="#c60b1e"/>
<use data-text="N" xlink:href="#font_4_707" transform="matrix(690.2498,0,0,-690.2498,5209.007,4075.1055)" fill="#c60b1e"/>
<use data-text="T" xlink:href="#font_4_713" transform="matrix(690.2498,0,0,-690.2498,5746.0217,4075.1055)" fill="#c60b1e"/>
<use data-text="O" xlink:href="#font_4_708" transform="matrix(690.2498,0,0,-690.2498,6165.6936,4075.1055)" fill="#c60b1e"/>
</g>
</svg>
